<mxfile host="app.diagrams.net" modified="2022-06-09T06:08:49.439Z" agent="5.0 (Windows NT 10.0; Win64; x64) AppleWebKit/537.36 (KHTML, like Gecko) Chrome/102.0.5005.63 Safari/537.36" etag="6Bj-qyfrpFgIMDgXnEg-" version="19.0.3" type="github" pages="5">
  <diagram id="XBYhANxDElpX4U77DWtZ" name="Page-1">
    <mxGraphModel dx="868" dy="1582" grid="1" gridSize="10" guides="1" tooltips="1" connect="1" arrows="1" fold="1" page="1" pageScale="1" pageWidth="850" pageHeight="1100" math="0" shadow="0">
      <root>
        <mxCell id="0" />
        <mxCell id="1" parent="0" />
        <mxCell id="zhhw4tCAqgYiPeB3pk8f-48" style="edgeStyle=orthogonalEdgeStyle;rounded=0;orthogonalLoop=1;jettySize=auto;html=1;exitX=0.5;exitY=0.5;exitDx=0;exitDy=0;exitPerimeter=0;" parent="1" source="zhhw4tCAqgYiPeB3pk8f-50" target="zhhw4tCAqgYiPeB3pk8f-52" edge="1">
          <mxGeometry relative="1" as="geometry" />
        </mxCell>
        <mxCell id="zhhw4tCAqgYiPeB3pk8f-49" value="include" style="edgeLabel;html=1;align=center;verticalAlign=middle;resizable=0;points=[];" parent="zhhw4tCAqgYiPeB3pk8f-48" vertex="1" connectable="0">
          <mxGeometry x="-0.1692" y="2" relative="1" as="geometry">
            <mxPoint as="offset" />
          </mxGeometry>
        </mxCell>
        <mxCell id="zhhw4tCAqgYiPeB3pk8f-50" value="Costumer" style="shape=umlActor;verticalLabelPosition=bottom;verticalAlign=top;html=1;outlineConnect=0;" parent="1" vertex="1">
          <mxGeometry x="40" y="120" width="30" height="60" as="geometry" />
        </mxCell>
        <mxCell id="zhhw4tCAqgYiPeB3pk8f-51" value="Visitors" style="shape=umlActor;verticalLabelPosition=bottom;verticalAlign=top;html=1;outlineConnect=0;" parent="1" vertex="1">
          <mxGeometry x="50" y="610" width="30" height="60" as="geometry" />
        </mxCell>
        <mxCell id="zhhw4tCAqgYiPeB3pk8f-52" value="Create Account" style="ellipse;whiteSpace=wrap;html=1;" parent="1" vertex="1">
          <mxGeometry x="130" y="110" width="80" height="80" as="geometry" />
        </mxCell>
        <mxCell id="zhhw4tCAqgYiPeB3pk8f-53" value="Details" style="ellipse;whiteSpace=wrap;html=1;" parent="1" vertex="1">
          <mxGeometry x="200" y="600" width="80" height="80" as="geometry" />
        </mxCell>
        <mxCell id="zhhw4tCAqgYiPeB3pk8f-54" value="Cards Information" style="ellipse;whiteSpace=wrap;html=1;" parent="1" vertex="1">
          <mxGeometry x="435" y="60" width="95" height="70" as="geometry" />
        </mxCell>
        <mxCell id="zhhw4tCAqgYiPeB3pk8f-55" value="Withdraw Amount" style="ellipse;whiteSpace=wrap;html=1;" parent="1" vertex="1">
          <mxGeometry x="435" y="160" width="95" height="70" as="geometry" />
        </mxCell>
        <mxCell id="zhhw4tCAqgYiPeB3pk8f-56" value="Profile" style="ellipse;whiteSpace=wrap;html=1;" parent="1" vertex="1">
          <mxGeometry x="436.25" y="260" width="92.5" height="70" as="geometry" />
        </mxCell>
        <mxCell id="zhhw4tCAqgYiPeB3pk8f-57" value="check balance" style="ellipse;whiteSpace=wrap;html=1;" parent="1" vertex="1">
          <mxGeometry x="441.25" y="350" width="87.5" height="70" as="geometry" />
        </mxCell>
        <mxCell id="zhhw4tCAqgYiPeB3pk8f-58" value="services" style="ellipse;whiteSpace=wrap;html=1;" parent="1" vertex="1">
          <mxGeometry x="450" y="500" width="80" height="80" as="geometry" />
        </mxCell>
        <mxCell id="zhhw4tCAqgYiPeB3pk8f-59" value="Privacy and Policy" style="ellipse;whiteSpace=wrap;html=1;" parent="1" vertex="1">
          <mxGeometry x="450" y="600" width="85" height="80" as="geometry" />
        </mxCell>
        <mxCell id="zhhw4tCAqgYiPeB3pk8f-60" value="About us" style="ellipse;whiteSpace=wrap;html=1;" parent="1" vertex="1">
          <mxGeometry x="450" y="700" width="80" height="80" as="geometry" />
        </mxCell>
        <mxCell id="zhhw4tCAqgYiPeB3pk8f-61" value="" style="endArrow=none;html=1;entryX=0;entryY=0.5;entryDx=0;entryDy=0;" parent="1" source="zhhw4tCAqgYiPeB3pk8f-51" target="zhhw4tCAqgYiPeB3pk8f-53" edge="1">
          <mxGeometry width="50" height="50" relative="1" as="geometry">
            <mxPoint x="90" y="545" as="sourcePoint" />
            <mxPoint x="140" y="495" as="targetPoint" />
          </mxGeometry>
        </mxCell>
        <mxCell id="zhhw4tCAqgYiPeB3pk8f-62" value="include" style="edgeLabel;html=1;align=center;verticalAlign=middle;resizable=0;points=[];" parent="zhhw4tCAqgYiPeB3pk8f-61" vertex="1" connectable="0">
          <mxGeometry x="-0.1541" y="-3" relative="1" as="geometry">
            <mxPoint as="offset" />
          </mxGeometry>
        </mxCell>
        <mxCell id="zhhw4tCAqgYiPeB3pk8f-63" value="extend" style="endArrow=none;html=1;entryX=0;entryY=0.5;entryDx=0;entryDy=0;exitX=0.95;exitY=0.225;exitDx=0;exitDy=0;exitPerimeter=0;" parent="1" source="zhhw4tCAqgYiPeB3pk8f-53" target="zhhw4tCAqgYiPeB3pk8f-58" edge="1">
          <mxGeometry width="50" height="50" relative="1" as="geometry">
            <mxPoint x="280" y="569" as="sourcePoint" />
            <mxPoint x="350" y="530" as="targetPoint" />
          </mxGeometry>
        </mxCell>
        <mxCell id="zhhw4tCAqgYiPeB3pk8f-64" value="extend" style="endArrow=none;html=1;" parent="1" source="zhhw4tCAqgYiPeB3pk8f-53" edge="1">
          <mxGeometry x="0.0583" y="-9" width="50" height="50" relative="1" as="geometry">
            <mxPoint x="300" y="650" as="sourcePoint" />
            <mxPoint x="448" y="642" as="targetPoint" />
            <Array as="points" />
            <mxPoint as="offset" />
          </mxGeometry>
        </mxCell>
        <mxCell id="zhhw4tCAqgYiPeB3pk8f-65" value="extend" style="endArrow=none;html=1;entryX=0.75;entryY=0.938;entryDx=0;entryDy=0;entryPerimeter=0;exitX=0;exitY=0.5;exitDx=0;exitDy=0;" parent="1" source="zhhw4tCAqgYiPeB3pk8f-60" target="zhhw4tCAqgYiPeB3pk8f-53" edge="1">
          <mxGeometry width="50" height="50" relative="1" as="geometry">
            <mxPoint x="459" y="650" as="sourcePoint" />
            <mxPoint x="305" y="640" as="targetPoint" />
          </mxGeometry>
        </mxCell>
        <mxCell id="zhhw4tCAqgYiPeB3pk8f-66" value="Chatbot" style="shape=umlActor;verticalLabelPosition=bottom;verticalAlign=top;html=1;outlineConnect=0;" parent="1" vertex="1">
          <mxGeometry x="780" y="40" width="30" height="60" as="geometry" />
        </mxCell>
        <mxCell id="zhhw4tCAqgYiPeB3pk8f-67" value="Chatbot" style="shape=umlActor;verticalLabelPosition=bottom;verticalAlign=top;html=1;outlineConnect=0;" parent="1" vertex="1">
          <mxGeometry x="780" y="670" width="30" height="60" as="geometry" />
        </mxCell>
        <mxCell id="zhhw4tCAqgYiPeB3pk8f-68" value="Offers" style="ellipse;whiteSpace=wrap;html=1;" parent="1" vertex="1">
          <mxGeometry x="435" y="-60" width="100" height="80" as="geometry" />
        </mxCell>
        <mxCell id="zhhw4tCAqgYiPeB3pk8f-69" value="Loans info" style="ellipse;whiteSpace=wrap;html=1;" parent="1" vertex="1">
          <mxGeometry x="625" y="-130" width="95" height="40" as="geometry" />
        </mxCell>
        <mxCell id="zhhw4tCAqgYiPeB3pk8f-70" value="Accounts info" style="ellipse;whiteSpace=wrap;html=1;" parent="1" vertex="1">
          <mxGeometry x="630" y="-190" width="90" height="50" as="geometry" />
        </mxCell>
        <mxCell id="zhhw4tCAqgYiPeB3pk8f-71" value="extend" style="endArrow=none;html=1;exitX=1;exitY=0.5;exitDx=0;exitDy=0;entryX=0;entryY=0.5;entryDx=0;entryDy=0;" parent="1" source="zhhw4tCAqgYiPeB3pk8f-52" target="zhhw4tCAqgYiPeB3pk8f-80" edge="1">
          <mxGeometry width="50" height="50" relative="1" as="geometry">
            <mxPoint x="382.5" y="50" as="sourcePoint" />
            <mxPoint x="433" as="targetPoint" />
          </mxGeometry>
        </mxCell>
        <mxCell id="zhhw4tCAqgYiPeB3pk8f-72" value="extend" style="endArrow=none;html=1;exitX=0.795;exitY=0.113;exitDx=0;exitDy=0;exitPerimeter=0;entryX=0;entryY=0.5;entryDx=0;entryDy=0;" parent="1" source="zhhw4tCAqgYiPeB3pk8f-68" target="zhhw4tCAqgYiPeB3pk8f-70" edge="1">
          <mxGeometry width="50" height="50" relative="1" as="geometry">
            <mxPoint x="510" y="-60" as="sourcePoint" />
            <mxPoint x="560" y="-110" as="targetPoint" />
            <Array as="points">
              <mxPoint x="540" y="-80" />
            </Array>
          </mxGeometry>
        </mxCell>
        <mxCell id="zhhw4tCAqgYiPeB3pk8f-73" value="extend" style="endArrow=none;html=1;exitX=1;exitY=0.5;exitDx=0;exitDy=0;" parent="1" source="zhhw4tCAqgYiPeB3pk8f-68" target="zhhw4tCAqgYiPeB3pk8f-69" edge="1">
          <mxGeometry width="50" height="50" relative="1" as="geometry">
            <mxPoint x="525" y="-10" as="sourcePoint" />
            <mxPoint x="575" y="-60" as="targetPoint" />
          </mxGeometry>
        </mxCell>
        <mxCell id="zhhw4tCAqgYiPeB3pk8f-74" value="" style="endArrow=none;html=1;entryX=0.79;entryY=0.95;entryDx=0;entryDy=0;entryPerimeter=0;" parent="1" target="zhhw4tCAqgYiPeB3pk8f-68" edge="1">
          <mxGeometry width="50" height="50" relative="1" as="geometry">
            <mxPoint x="792.5" y="80" as="sourcePoint" />
            <mxPoint x="535" y="-170" as="targetPoint" />
            <Array as="points">
              <mxPoint x="630" y="30" />
            </Array>
          </mxGeometry>
        </mxCell>
        <mxCell id="zhhw4tCAqgYiPeB3pk8f-75" value="" style="endArrow=none;html=1;exitX=1;exitY=0.5;exitDx=0;exitDy=0;" parent="1" source="zhhw4tCAqgYiPeB3pk8f-56" target="zhhw4tCAqgYiPeB3pk8f-76" edge="1">
          <mxGeometry width="50" height="50" relative="1" as="geometry">
            <mxPoint x="520" y="260" as="sourcePoint" />
            <mxPoint x="570" y="290" as="targetPoint" />
          </mxGeometry>
        </mxCell>
        <mxCell id="zhhw4tCAqgYiPeB3pk8f-76" value="Change Password" style="ellipse;whiteSpace=wrap;html=1;" parent="1" vertex="1">
          <mxGeometry x="580" y="255" width="120" height="80" as="geometry" />
        </mxCell>
        <mxCell id="zhhw4tCAqgYiPeB3pk8f-77" value="manages customer" style="ellipse;whiteSpace=wrap;html=1;" parent="1" vertex="1">
          <mxGeometry x="620" y="-260" width="110" height="40" as="geometry" />
        </mxCell>
        <mxCell id="zhhw4tCAqgYiPeB3pk8f-78" value="Admin" style="shape=umlActor;verticalLabelPosition=bottom;verticalAlign=top;html=1;outlineConnect=0;" parent="1" vertex="1">
          <mxGeometry x="795" y="-210" width="30" height="60" as="geometry" />
        </mxCell>
        <mxCell id="zhhw4tCAqgYiPeB3pk8f-79" value="" style="endArrow=none;html=1;exitX=1;exitY=0.5;exitDx=0;exitDy=0;entryX=0.5;entryY=0.5;entryDx=0;entryDy=0;entryPerimeter=0;" parent="1" source="zhhw4tCAqgYiPeB3pk8f-77" target="zhhw4tCAqgYiPeB3pk8f-78" edge="1">
          <mxGeometry width="50" height="50" relative="1" as="geometry">
            <mxPoint x="730" y="450" as="sourcePoint" />
            <mxPoint x="780" y="400" as="targetPoint" />
            <Array as="points" />
          </mxGeometry>
        </mxCell>
        <mxCell id="zhhw4tCAqgYiPeB3pk8f-80" value="Log In" style="ellipse;whiteSpace=wrap;html=1;" parent="1" vertex="1">
          <mxGeometry x="433.75" y="-220" width="105" height="80" as="geometry" />
        </mxCell>
        <mxCell id="zhhw4tCAqgYiPeB3pk8f-81" value="" style="endArrow=none;html=1;exitX=0.5;exitY=0;exitDx=0;exitDy=0;" parent="1" source="zhhw4tCAqgYiPeB3pk8f-54" target="zhhw4tCAqgYiPeB3pk8f-68" edge="1">
          <mxGeometry width="50" height="50" relative="1" as="geometry">
            <mxPoint x="500" y="50" as="sourcePoint" />
            <mxPoint x="510" y="20" as="targetPoint" />
          </mxGeometry>
        </mxCell>
        <mxCell id="zhhw4tCAqgYiPeB3pk8f-82" value="" style="endArrow=none;html=1;exitX=0.5;exitY=0;exitDx=0;exitDy=0;" parent="1" source="zhhw4tCAqgYiPeB3pk8f-56" target="zhhw4tCAqgYiPeB3pk8f-55" edge="1">
          <mxGeometry width="50" height="50" relative="1" as="geometry">
            <mxPoint x="520" y="260" as="sourcePoint" />
            <mxPoint x="570" y="210" as="targetPoint" />
          </mxGeometry>
        </mxCell>
        <mxCell id="zhhw4tCAqgYiPeB3pk8f-83" value="" style="endArrow=none;html=1;" parent="1" source="zhhw4tCAqgYiPeB3pk8f-57" edge="1">
          <mxGeometry width="50" height="50" relative="1" as="geometry">
            <mxPoint x="480" y="380" as="sourcePoint" />
            <mxPoint x="483" y="330" as="targetPoint" />
          </mxGeometry>
        </mxCell>
        <mxCell id="zhhw4tCAqgYiPeB3pk8f-84" value="" style="endArrow=none;html=1;entryX=0.5;entryY=1;entryDx=0;entryDy=0;exitX=0.5;exitY=0;exitDx=0;exitDy=0;" parent="1" source="zhhw4tCAqgYiPeB3pk8f-55" target="zhhw4tCAqgYiPeB3pk8f-54" edge="1">
          <mxGeometry width="50" height="50" relative="1" as="geometry">
            <mxPoint x="450" y="170" as="sourcePoint" />
            <mxPoint x="500" y="120" as="targetPoint" />
            <Array as="points" />
          </mxGeometry>
        </mxCell>
        <mxCell id="zhhw4tCAqgYiPeB3pk8f-85" value="" style="endArrow=none;html=1;entryX=0.5;entryY=0.5;entryDx=0;entryDy=0;entryPerimeter=0;exitX=1;exitY=0.5;exitDx=0;exitDy=0;" parent="1" source="zhhw4tCAqgYiPeB3pk8f-59" target="zhhw4tCAqgYiPeB3pk8f-67" edge="1">
          <mxGeometry width="50" height="50" relative="1" as="geometry">
            <mxPoint x="420" y="590" as="sourcePoint" />
            <mxPoint x="470" y="540" as="targetPoint" />
            <Array as="points" />
          </mxGeometry>
        </mxCell>
        <mxCell id="zhhw4tCAqgYiPeB3pk8f-86" value="" style="endArrow=none;html=1;entryX=1;entryY=0.5;entryDx=0;entryDy=0;exitX=0;exitY=0.3333333333333333;exitDx=0;exitDy=0;exitPerimeter=0;" parent="1" source="zhhw4tCAqgYiPeB3pk8f-67" target="zhhw4tCAqgYiPeB3pk8f-58" edge="1">
          <mxGeometry width="50" height="50" relative="1" as="geometry">
            <mxPoint x="420" y="590" as="sourcePoint" />
            <mxPoint x="470" y="540" as="targetPoint" />
            <Array as="points">
              <mxPoint x="640" y="600" />
            </Array>
          </mxGeometry>
        </mxCell>
        <mxCell id="zhhw4tCAqgYiPeB3pk8f-87" value="" style="endArrow=none;html=1;entryX=0;entryY=1;entryDx=0;entryDy=0;entryPerimeter=0;exitX=1;exitY=0.5;exitDx=0;exitDy=0;" parent="1" source="zhhw4tCAqgYiPeB3pk8f-60" target="zhhw4tCAqgYiPeB3pk8f-67" edge="1">
          <mxGeometry width="50" height="50" relative="1" as="geometry">
            <mxPoint x="545" y="650" as="sourcePoint" />
            <mxPoint x="805" y="710" as="targetPoint" />
            <Array as="points" />
          </mxGeometry>
        </mxCell>
        <mxCell id="zhhw4tCAqgYiPeB3pk8f-88" value="" style="endArrow=none;html=1;exitX=0.5;exitY=1;exitDx=0;exitDy=0;entryX=0.5;entryY=0;entryDx=0;entryDy=0;" parent="1" source="zhhw4tCAqgYiPeB3pk8f-80" target="zhhw4tCAqgYiPeB3pk8f-68" edge="1">
          <mxGeometry width="50" height="50" relative="1" as="geometry">
            <mxPoint x="380" y="100" as="sourcePoint" />
            <mxPoint x="430" y="50" as="targetPoint" />
          </mxGeometry>
        </mxCell>
        <mxCell id="zhhw4tCAqgYiPeB3pk8f-89" value="Hajj Packages info" style="ellipse;whiteSpace=wrap;html=1;" parent="1" vertex="1">
          <mxGeometry x="635" y="-80" width="95" height="40" as="geometry" />
        </mxCell>
        <mxCell id="zhhw4tCAqgYiPeB3pk8f-90" value="" style="endArrow=none;html=1;entryX=0.93;entryY=0.8;entryDx=0;entryDy=0;entryPerimeter=0;" parent="1" source="zhhw4tCAqgYiPeB3pk8f-89" target="zhhw4tCAqgYiPeB3pk8f-68" edge="1">
          <mxGeometry width="50" height="50" relative="1" as="geometry">
            <mxPoint x="690" y="50" as="sourcePoint" />
            <mxPoint x="750" y="-10" as="targetPoint" />
          </mxGeometry>
        </mxCell>
        <mxCell id="zhhw4tCAqgYiPeB3pk8f-91" value="Debit card" style="ellipse;whiteSpace=wrap;html=1;" parent="1" vertex="1">
          <mxGeometry x="580" y="40" width="80" height="50" as="geometry" />
        </mxCell>
        <mxCell id="zhhw4tCAqgYiPeB3pk8f-92" value="Credit Card" style="ellipse;whiteSpace=wrap;html=1;" parent="1" vertex="1">
          <mxGeometry x="590" y="110" width="100" height="50" as="geometry" />
        </mxCell>
        <mxCell id="zhhw4tCAqgYiPeB3pk8f-93" value="" style="endArrow=none;html=1;" parent="1" source="zhhw4tCAqgYiPeB3pk8f-54" edge="1">
          <mxGeometry width="50" height="50" relative="1" as="geometry">
            <mxPoint x="540" y="90" as="sourcePoint" />
            <mxPoint x="590" y="80" as="targetPoint" />
          </mxGeometry>
        </mxCell>
        <mxCell id="zhhw4tCAqgYiPeB3pk8f-94" value="" style="endArrow=none;html=1;entryX=0;entryY=0.5;entryDx=0;entryDy=0;exitX=1;exitY=1;exitDx=0;exitDy=0;" parent="1" source="zhhw4tCAqgYiPeB3pk8f-54" target="zhhw4tCAqgYiPeB3pk8f-92" edge="1">
          <mxGeometry width="50" height="50" relative="1" as="geometry">
            <mxPoint x="510" y="170" as="sourcePoint" />
            <mxPoint x="560" y="120" as="targetPoint" />
          </mxGeometry>
        </mxCell>
        <mxCell id="b_9Mp2iJczkTAZqkk-CT-3" value="" style="endArrow=none;html=1;exitX=1;exitY=0.5;exitDx=0;exitDy=0;entryX=0;entryY=0.5;entryDx=0;entryDy=0;" parent="1" source="zhhw4tCAqgYiPeB3pk8f-80" target="zhhw4tCAqgYiPeB3pk8f-77" edge="1">
          <mxGeometry width="50" height="50" relative="1" as="geometry">
            <mxPoint x="590" y="-200" as="sourcePoint" />
            <mxPoint x="640" y="-250" as="targetPoint" />
          </mxGeometry>
        </mxCell>
        <mxCell id="sZTv5uJTHjxf4a5DJOjP-1" value="&lt;b&gt;&lt;font style=&quot;font-size: 24px&quot;&gt;Use Case Diagram&lt;/font&gt;&lt;/b&gt;" style="text;html=1;align=center;verticalAlign=middle;resizable=0;points=[];autosize=1;" parent="1" vertex="1">
          <mxGeometry x="308.75" y="-320" width="230" height="20" as="geometry" />
        </mxCell>
      </root>
    </mxGraphModel>
  </diagram>
  <diagram id="d_EfVIvAjvjkUxZJhF9-" name="Page-2">
    <mxGraphModel dx="1871" dy="567" grid="1" gridSize="10" guides="1" tooltips="1" connect="1" arrows="1" fold="1" page="1" pageScale="1" pageWidth="850" pageHeight="1100" math="0" shadow="0">
      <root>
        <mxCell id="J34ps1AV-0dYbGwE9PoU-0" />
        <mxCell id="J34ps1AV-0dYbGwE9PoU-1" parent="J34ps1AV-0dYbGwE9PoU-0" />
        <mxCell id="J34ps1AV-0dYbGwE9PoU-24" value="Customers" style="whiteSpace=wrap;html=1;rounded=0;" parent="J34ps1AV-0dYbGwE9PoU-1" vertex="1">
          <mxGeometry x="320" y="285" width="120" height="45" as="geometry" />
        </mxCell>
        <mxCell id="J34ps1AV-0dYbGwE9PoU-30" value="cus_name" style="ellipse;whiteSpace=wrap;html=1;rounded=0;" parent="J34ps1AV-0dYbGwE9PoU-1" vertex="1">
          <mxGeometry x="120" y="250" width="120" height="45" as="geometry" />
        </mxCell>
        <mxCell id="J34ps1AV-0dYbGwE9PoU-34" value="cus_address" style="ellipse;whiteSpace=wrap;html=1;rounded=0;" parent="J34ps1AV-0dYbGwE9PoU-1" vertex="1">
          <mxGeometry x="560" y="260" width="120" height="45" as="geometry" />
        </mxCell>
        <mxCell id="J34ps1AV-0dYbGwE9PoU-35" value="cus_phone" style="ellipse;whiteSpace=wrap;html=1;rounded=0;" parent="J34ps1AV-0dYbGwE9PoU-1" vertex="1">
          <mxGeometry x="555" y="320" width="120" height="45" as="geometry" />
        </mxCell>
        <mxCell id="J34ps1AV-0dYbGwE9PoU-37" value="Avail" style="rhombus;whiteSpace=wrap;html=1;rounded=0;" parent="J34ps1AV-0dYbGwE9PoU-1" vertex="1">
          <mxGeometry x="340" y="380" width="80" height="80" as="geometry" />
        </mxCell>
        <mxCell id="J34ps1AV-0dYbGwE9PoU-39" value="ChatBot" style="whiteSpace=wrap;html=1;rounded=0;" parent="J34ps1AV-0dYbGwE9PoU-1" vertex="1">
          <mxGeometry x="320" y="500" width="120" height="60" as="geometry" />
        </mxCell>
        <mxCell id="J34ps1AV-0dYbGwE9PoU-43" value="PK: chat_id" style="ellipse;whiteSpace=wrap;html=1;rounded=0;" parent="J34ps1AV-0dYbGwE9PoU-1" vertex="1">
          <mxGeometry x="120" y="485" width="120" height="35" as="geometry" />
        </mxCell>
        <mxCell id="J34ps1AV-0dYbGwE9PoU-45" value="chat_name" style="ellipse;whiteSpace=wrap;html=1;rounded=0;" parent="J34ps1AV-0dYbGwE9PoU-1" vertex="1">
          <mxGeometry x="120" y="533" width="120" height="35" as="geometry" />
        </mxCell>
        <mxCell id="J34ps1AV-0dYbGwE9PoU-51" value="chat_language" style="ellipse;whiteSpace=wrap;html=1;rounded=0;" parent="J34ps1AV-0dYbGwE9PoU-1" vertex="1">
          <mxGeometry x="500" y="485" width="120" height="35" as="geometry" />
        </mxCell>
        <mxCell id="J34ps1AV-0dYbGwE9PoU-56" value="Offers" style="rhombus;whiteSpace=wrap;html=1;rounded=0;" parent="J34ps1AV-0dYbGwE9PoU-1" vertex="1">
          <mxGeometry x="340" y="615" width="80" height="80" as="geometry" />
        </mxCell>
        <mxCell id="J34ps1AV-0dYbGwE9PoU-58" value="Account Info" style="whiteSpace=wrap;html=1;rounded=0;" parent="J34ps1AV-0dYbGwE9PoU-1" vertex="1">
          <mxGeometry x="480" y="810" width="120" height="60" as="geometry" />
        </mxCell>
        <mxCell id="J34ps1AV-0dYbGwE9PoU-64" value="acc_type" style="ellipse;whiteSpace=wrap;html=1;rounded=0;" parent="J34ps1AV-0dYbGwE9PoU-1" vertex="1">
          <mxGeometry x="640" y="820" width="120" height="50" as="geometry" />
        </mxCell>
        <mxCell id="J34ps1AV-0dYbGwE9PoU-66" value="Loan Info" style="whiteSpace=wrap;html=1;rounded=0;" parent="J34ps1AV-0dYbGwE9PoU-1" vertex="1">
          <mxGeometry x="320" y="905" width="120" height="50" as="geometry" />
        </mxCell>
        <mxCell id="J34ps1AV-0dYbGwE9PoU-68" value="PK: loan_id" style="ellipse;whiteSpace=wrap;html=1;rounded=0;" parent="J34ps1AV-0dYbGwE9PoU-1" vertex="1">
          <mxGeometry x="120" y="890" width="120" height="45" as="geometry" />
        </mxCell>
        <mxCell id="J34ps1AV-0dYbGwE9PoU-71" value="loan_type" style="ellipse;whiteSpace=wrap;html=1;rounded=0;" parent="J34ps1AV-0dYbGwE9PoU-1" vertex="1">
          <mxGeometry x="110" y="940" width="120" height="45" as="geometry" />
        </mxCell>
        <mxCell id="J34ps1AV-0dYbGwE9PoU-73" value="Business" style="ellipse;whiteSpace=wrap;html=1;rounded=0;" parent="J34ps1AV-0dYbGwE9PoU-1" vertex="1">
          <mxGeometry x="200" y="1040" width="80" height="45" as="geometry" />
        </mxCell>
        <mxCell id="J34ps1AV-0dYbGwE9PoU-75" value="Personal" style="ellipse;whiteSpace=wrap;html=1;rounded=0;" parent="J34ps1AV-0dYbGwE9PoU-1" vertex="1">
          <mxGeometry x="100" y="1040" width="80" height="45" as="geometry" />
        </mxCell>
        <mxCell id="J34ps1AV-0dYbGwE9PoU-77" value="Education" style="ellipse;whiteSpace=wrap;html=1;rounded=0;" parent="J34ps1AV-0dYbGwE9PoU-1" vertex="1">
          <mxGeometry x="10" y="1040" width="80" height="45" as="geometry" />
        </mxCell>
        <mxCell id="J34ps1AV-0dYbGwE9PoU-81" value="loan_amount" style="ellipse;whiteSpace=wrap;html=1;rounded=0;" parent="J34ps1AV-0dYbGwE9PoU-1" vertex="1">
          <mxGeometry x="320" y="1040" width="120" height="45" as="geometry" />
        </mxCell>
        <mxCell id="J34ps1AV-0dYbGwE9PoU-82" value="Balance" style="ellipse;whiteSpace=wrap;html=1;rounded=0;" parent="J34ps1AV-0dYbGwE9PoU-1" vertex="1">
          <mxGeometry x="490" y="890" width="120" height="50" as="geometry" />
        </mxCell>
        <mxCell id="J34ps1AV-0dYbGwE9PoU-90" value="business" style="ellipse;whiteSpace=wrap;html=1;rounded=0;" parent="J34ps1AV-0dYbGwE9PoU-1" vertex="1">
          <mxGeometry x="750" y="976.77" width="80" height="45" as="geometry" />
        </mxCell>
        <mxCell id="J34ps1AV-0dYbGwE9PoU-92" value="current" style="ellipse;whiteSpace=wrap;html=1;rounded=0;" parent="J34ps1AV-0dYbGwE9PoU-1" vertex="1">
          <mxGeometry x="660" y="976.77" width="80" height="45" as="geometry" />
        </mxCell>
        <mxCell id="J34ps1AV-0dYbGwE9PoU-94" value="savings" style="ellipse;whiteSpace=wrap;html=1;rounded=0;" parent="J34ps1AV-0dYbGwE9PoU-1" vertex="1">
          <mxGeometry x="570" y="976.77" width="80" height="43.23" as="geometry" />
        </mxCell>
        <mxCell id="Eq-KSOYSEToP4c7O12Pv-0" value="HajjPackages" style="whiteSpace=wrap;html=1;rounded=0;" parent="J34ps1AV-0dYbGwE9PoU-1" vertex="1">
          <mxGeometry x="170" y="640" width="120" height="60" as="geometry" />
        </mxCell>
        <mxCell id="Eq-KSOYSEToP4c7O12Pv-6" value="" style="endArrow=none;html=1;exitX=0.5;exitY=0;exitDx=0;exitDy=0;entryX=0.5;entryY=1;entryDx=0;entryDy=0;" parent="J34ps1AV-0dYbGwE9PoU-1" source="J34ps1AV-0dYbGwE9PoU-81" target="J34ps1AV-0dYbGwE9PoU-66" edge="1">
          <mxGeometry width="50" height="50" relative="1" as="geometry">
            <mxPoint x="330" y="985" as="sourcePoint" />
            <mxPoint x="390" y="985" as="targetPoint" />
          </mxGeometry>
        </mxCell>
        <mxCell id="Eq-KSOYSEToP4c7O12Pv-7" value="" style="endArrow=none;html=1;exitX=1;exitY=0.5;exitDx=0;exitDy=0;" parent="J34ps1AV-0dYbGwE9PoU-1" source="J34ps1AV-0dYbGwE9PoU-68" edge="1">
          <mxGeometry width="50" height="50" relative="1" as="geometry">
            <mxPoint x="260" y="912" as="sourcePoint" />
            <mxPoint x="320" y="912" as="targetPoint" />
          </mxGeometry>
        </mxCell>
        <mxCell id="Eq-KSOYSEToP4c7O12Pv-8" value="" style="endArrow=none;html=1;exitX=1;exitY=0.5;exitDx=0;exitDy=0;" parent="J34ps1AV-0dYbGwE9PoU-1" source="J34ps1AV-0dYbGwE9PoU-71" edge="1">
          <mxGeometry width="50" height="50" relative="1" as="geometry">
            <mxPoint x="260" y="945" as="sourcePoint" />
            <mxPoint x="320" y="945" as="targetPoint" />
            <Array as="points">
              <mxPoint x="270" y="945" />
            </Array>
          </mxGeometry>
        </mxCell>
        <mxCell id="Eq-KSOYSEToP4c7O12Pv-9" value="" style="endArrow=none;html=1;exitX=1;exitY=1;exitDx=0;exitDy=0;entryX=0.5;entryY=0;entryDx=0;entryDy=0;" parent="J34ps1AV-0dYbGwE9PoU-1" source="J34ps1AV-0dYbGwE9PoU-71" target="J34ps1AV-0dYbGwE9PoU-73" edge="1">
          <mxGeometry width="50" height="50" relative="1" as="geometry">
            <mxPoint x="210" y="1025" as="sourcePoint" />
            <mxPoint x="270" y="1025" as="targetPoint" />
          </mxGeometry>
        </mxCell>
        <mxCell id="Eq-KSOYSEToP4c7O12Pv-10" value="" style="endArrow=none;html=1;entryX=0.5;entryY=1;entryDx=0;entryDy=0;" parent="J34ps1AV-0dYbGwE9PoU-1" source="J34ps1AV-0dYbGwE9PoU-75" target="J34ps1AV-0dYbGwE9PoU-71" edge="1">
          <mxGeometry width="50" height="50" relative="1" as="geometry">
            <mxPoint x="130" y="1025" as="sourcePoint" />
            <mxPoint x="190" y="1025" as="targetPoint" />
          </mxGeometry>
        </mxCell>
        <mxCell id="Eq-KSOYSEToP4c7O12Pv-11" value="" style="endArrow=none;html=1;entryX=0;entryY=1;entryDx=0;entryDy=0;exitX=0.5;exitY=0;exitDx=0;exitDy=0;" parent="J34ps1AV-0dYbGwE9PoU-1" source="J34ps1AV-0dYbGwE9PoU-77" target="J34ps1AV-0dYbGwE9PoU-71" edge="1">
          <mxGeometry width="50" height="50" relative="1" as="geometry">
            <mxPoint x="70" y="1005" as="sourcePoint" />
            <mxPoint x="100" y="1005" as="targetPoint" />
          </mxGeometry>
        </mxCell>
        <mxCell id="Eq-KSOYSEToP4c7O12Pv-12" value="" style="endArrow=none;html=1;exitX=0.5;exitY=0;exitDx=0;exitDy=0;entryX=0;entryY=1;entryDx=0;entryDy=0;" parent="J34ps1AV-0dYbGwE9PoU-1" source="J34ps1AV-0dYbGwE9PoU-94" target="J34ps1AV-0dYbGwE9PoU-64" edge="1">
          <mxGeometry width="50" height="50" relative="1" as="geometry">
            <mxPoint x="620" y="945" as="sourcePoint" />
            <mxPoint x="680" y="945" as="targetPoint" />
          </mxGeometry>
        </mxCell>
        <mxCell id="Eq-KSOYSEToP4c7O12Pv-13" value="" style="endArrow=none;html=1;exitX=0.5;exitY=1;exitDx=0;exitDy=0;entryX=0.5;entryY=0;entryDx=0;entryDy=0;" parent="J34ps1AV-0dYbGwE9PoU-1" source="J34ps1AV-0dYbGwE9PoU-64" target="J34ps1AV-0dYbGwE9PoU-92" edge="1">
          <mxGeometry width="50" height="50" relative="1" as="geometry">
            <mxPoint x="710" y="960" as="sourcePoint" />
            <mxPoint x="770" y="960" as="targetPoint" />
          </mxGeometry>
        </mxCell>
        <mxCell id="Eq-KSOYSEToP4c7O12Pv-14" value="" style="endArrow=none;html=1;exitX=0.75;exitY=1;exitDx=0;exitDy=0;exitPerimeter=0;entryX=0.5;entryY=0;entryDx=0;entryDy=0;" parent="J34ps1AV-0dYbGwE9PoU-1" source="J34ps1AV-0dYbGwE9PoU-64" target="J34ps1AV-0dYbGwE9PoU-90" edge="1">
          <mxGeometry width="50" height="50" relative="1" as="geometry">
            <mxPoint x="750" y="950" as="sourcePoint" />
            <mxPoint x="780" y="950" as="targetPoint" />
          </mxGeometry>
        </mxCell>
        <mxCell id="Eq-KSOYSEToP4c7O12Pv-15" value="" style="endArrow=none;html=1;exitX=0.592;exitY=1;exitDx=0;exitDy=0;exitPerimeter=0;entryX=0.5;entryY=0;entryDx=0;entryDy=0;" parent="J34ps1AV-0dYbGwE9PoU-1" source="J34ps1AV-0dYbGwE9PoU-58" target="J34ps1AV-0dYbGwE9PoU-82" edge="1">
          <mxGeometry width="50" height="50" relative="1" as="geometry">
            <mxPoint x="530" y="880" as="sourcePoint" />
            <mxPoint x="550" y="890" as="targetPoint" />
          </mxGeometry>
        </mxCell>
        <mxCell id="Eq-KSOYSEToP4c7O12Pv-18" value="" style="endArrow=none;html=1;exitX=1;exitY=0.5;exitDx=0;exitDy=0;" parent="J34ps1AV-0dYbGwE9PoU-1" source="J34ps1AV-0dYbGwE9PoU-58" target="J34ps1AV-0dYbGwE9PoU-64" edge="1">
          <mxGeometry width="50" height="50" relative="1" as="geometry">
            <mxPoint x="600" y="850" as="sourcePoint" />
            <mxPoint x="660" y="850" as="targetPoint" />
            <Array as="points" />
          </mxGeometry>
        </mxCell>
        <mxCell id="Eq-KSOYSEToP4c7O12Pv-20" value="" style="endArrow=none;html=1;exitX=1;exitY=0.25;exitDx=0;exitDy=0;entryX=0;entryY=0.5;entryDx=0;entryDy=0;" parent="J34ps1AV-0dYbGwE9PoU-1" source="J34ps1AV-0dYbGwE9PoU-39" target="J34ps1AV-0dYbGwE9PoU-51" edge="1">
          <mxGeometry width="50" height="50" relative="1" as="geometry">
            <mxPoint x="440" y="574.5" as="sourcePoint" />
            <mxPoint x="500" y="574.5" as="targetPoint" />
          </mxGeometry>
        </mxCell>
        <mxCell id="Eq-KSOYSEToP4c7O12Pv-21" value="" style="endArrow=none;html=1;exitX=0.5;exitY=1;exitDx=0;exitDy=0;entryX=0.5;entryY=0;entryDx=0;entryDy=0;" parent="J34ps1AV-0dYbGwE9PoU-1" source="J34ps1AV-0dYbGwE9PoU-39" target="J34ps1AV-0dYbGwE9PoU-56" edge="1">
          <mxGeometry width="50" height="50" relative="1" as="geometry">
            <mxPoint x="350" y="640" as="sourcePoint" />
            <mxPoint x="380" y="660" as="targetPoint" />
          </mxGeometry>
        </mxCell>
        <mxCell id="Eq-KSOYSEToP4c7O12Pv-22" value="" style="endArrow=none;html=1;exitX=1;exitY=0.5;exitDx=0;exitDy=0;entryX=0;entryY=0.75;entryDx=0;entryDy=0;" parent="J34ps1AV-0dYbGwE9PoU-1" source="J34ps1AV-0dYbGwE9PoU-45" target="J34ps1AV-0dYbGwE9PoU-39" edge="1">
          <mxGeometry width="50" height="50" relative="1" as="geometry">
            <mxPoint x="260" y="597" as="sourcePoint" />
            <mxPoint x="320" y="597" as="targetPoint" />
            <Array as="points" />
          </mxGeometry>
        </mxCell>
        <mxCell id="Eq-KSOYSEToP4c7O12Pv-23" value="" style="endArrow=none;html=1;exitX=1;exitY=0.5;exitDx=0;exitDy=0;entryX=0;entryY=0.25;entryDx=0;entryDy=0;" parent="J34ps1AV-0dYbGwE9PoU-1" source="J34ps1AV-0dYbGwE9PoU-43" target="J34ps1AV-0dYbGwE9PoU-39" edge="1">
          <mxGeometry width="50" height="50" relative="1" as="geometry">
            <mxPoint x="240" y="558" as="sourcePoint" />
            <mxPoint x="320" y="557.5" as="targetPoint" />
            <Array as="points" />
          </mxGeometry>
        </mxCell>
        <mxCell id="Eq-KSOYSEToP4c7O12Pv-24" value="" style="endArrow=none;html=1;exitX=0.5;exitY=1;exitDx=0;exitDy=0;entryX=0.5;entryY=0;entryDx=0;entryDy=0;" parent="J34ps1AV-0dYbGwE9PoU-1" source="J34ps1AV-0dYbGwE9PoU-37" target="J34ps1AV-0dYbGwE9PoU-39" edge="1">
          <mxGeometry width="50" height="50" relative="1" as="geometry">
            <mxPoint x="380" y="545.5" as="sourcePoint" />
            <mxPoint x="460" y="545" as="targetPoint" />
            <Array as="points" />
          </mxGeometry>
        </mxCell>
        <mxCell id="Eq-KSOYSEToP4c7O12Pv-25" value="" style="endArrow=none;html=1;exitX=0.5;exitY=1;exitDx=0;exitDy=0;entryX=0.5;entryY=0;entryDx=0;entryDy=0;" parent="J34ps1AV-0dYbGwE9PoU-1" target="J34ps1AV-0dYbGwE9PoU-37" edge="1">
          <mxGeometry width="50" height="50" relative="1" as="geometry">
            <mxPoint x="379.5" y="335" as="sourcePoint" />
            <mxPoint x="380" y="380" as="targetPoint" />
            <Array as="points" />
          </mxGeometry>
        </mxCell>
        <mxCell id="Eq-KSOYSEToP4c7O12Pv-26" value="" style="endArrow=none;html=1;exitX=1;exitY=0.75;exitDx=0;exitDy=0;entryX=0;entryY=0.5;entryDx=0;entryDy=0;" parent="J34ps1AV-0dYbGwE9PoU-1" source="J34ps1AV-0dYbGwE9PoU-24" target="J34ps1AV-0dYbGwE9PoU-35" edge="1">
          <mxGeometry width="50" height="50" relative="1" as="geometry">
            <mxPoint x="489" y="325" as="sourcePoint" />
            <mxPoint x="489" y="415" as="targetPoint" />
            <Array as="points" />
          </mxGeometry>
        </mxCell>
        <mxCell id="Eq-KSOYSEToP4c7O12Pv-27" value="" style="endArrow=none;html=1;exitX=1;exitY=0.25;exitDx=0;exitDy=0;entryX=0;entryY=0.5;entryDx=0;entryDy=0;" parent="J34ps1AV-0dYbGwE9PoU-1" source="J34ps1AV-0dYbGwE9PoU-24" target="J34ps1AV-0dYbGwE9PoU-34" edge="1">
          <mxGeometry width="50" height="50" relative="1" as="geometry">
            <mxPoint x="499" y="290" as="sourcePoint" />
            <mxPoint x="499" y="380" as="targetPoint" />
            <Array as="points" />
          </mxGeometry>
        </mxCell>
        <mxCell id="Eq-KSOYSEToP4c7O12Pv-29" value="" style="endArrow=none;html=1;exitX=0;exitY=0.25;exitDx=0;exitDy=0;entryX=1;entryY=0.5;entryDx=0;entryDy=0;" parent="J34ps1AV-0dYbGwE9PoU-1" source="J34ps1AV-0dYbGwE9PoU-24" target="J34ps1AV-0dYbGwE9PoU-30" edge="1">
          <mxGeometry width="50" height="50" relative="1" as="geometry">
            <mxPoint x="300" y="290" as="sourcePoint" />
            <mxPoint x="300" y="380" as="targetPoint" />
            <Array as="points" />
          </mxGeometry>
        </mxCell>
        <mxCell id="Eq-KSOYSEToP4c7O12Pv-44" value="ATM Cards Info&lt;br&gt;" style="rounded=0;whiteSpace=wrap;html=1;" parent="J34ps1AV-0dYbGwE9PoU-1" vertex="1">
          <mxGeometry x="150" y="749.11" width="120" height="60" as="geometry" />
        </mxCell>
        <mxCell id="Eq-KSOYSEToP4c7O12Pv-46" value="" style="endArrow=none;html=1;entryX=0.25;entryY=1;entryDx=0;entryDy=0;exitX=0.5;exitY=0;exitDx=0;exitDy=0;" parent="J34ps1AV-0dYbGwE9PoU-1" source="Eq-KSOYSEToP4c7O12Pv-47" target="Eq-KSOYSEToP4c7O12Pv-44" edge="1">
          <mxGeometry width="50" height="50" relative="1" as="geometry">
            <mxPoint x="210" y="810" as="sourcePoint" />
            <mxPoint x="450" y="820" as="targetPoint" />
          </mxGeometry>
        </mxCell>
        <mxCell id="Eq-KSOYSEToP4c7O12Pv-47" value="Gold Card&lt;br&gt;" style="ellipse;whiteSpace=wrap;html=1;" parent="J34ps1AV-0dYbGwE9PoU-1" vertex="1">
          <mxGeometry x="90" y="829.11" width="110" height="30" as="geometry" />
        </mxCell>
        <mxCell id="Eq-KSOYSEToP4c7O12Pv-48" value="Silver Card" style="ellipse;whiteSpace=wrap;html=1;" parent="J34ps1AV-0dYbGwE9PoU-1" vertex="1">
          <mxGeometry x="-40" y="825.88" width="100" height="28.23" as="geometry" />
        </mxCell>
        <mxCell id="Eq-KSOYSEToP4c7O12Pv-49" value="" style="endArrow=none;html=1;exitX=1;exitY=0.5;exitDx=0;exitDy=0;entryX=0;entryY=0.5;entryDx=0;entryDy=0;" parent="J34ps1AV-0dYbGwE9PoU-1" source="Eq-KSOYSEToP4c7O12Pv-48" target="Eq-KSOYSEToP4c7O12Pv-44" edge="1">
          <mxGeometry width="50" height="50" relative="1" as="geometry">
            <mxPoint x="115.4996575616974" y="814.1750958827247" as="sourcePoint" />
            <mxPoint x="180" y="780" as="targetPoint" />
          </mxGeometry>
        </mxCell>
        <mxCell id="Eq-KSOYSEToP4c7O12Pv-50" value="Platinum Card" style="ellipse;whiteSpace=wrap;html=1;" parent="J34ps1AV-0dYbGwE9PoU-1" vertex="1">
          <mxGeometry x="220" y="830.88" width="110" height="28.23" as="geometry" />
        </mxCell>
        <mxCell id="Eq-KSOYSEToP4c7O12Pv-51" value="" style="endArrow=none;html=1;entryX=0.75;entryY=1;entryDx=0;entryDy=0;exitX=0.5;exitY=0;exitDx=0;exitDy=0;" parent="J34ps1AV-0dYbGwE9PoU-1" source="Eq-KSOYSEToP4c7O12Pv-50" target="Eq-KSOYSEToP4c7O12Pv-44" edge="1">
          <mxGeometry width="50" height="50" relative="1" as="geometry">
            <mxPoint x="300" y="810" as="sourcePoint" />
            <mxPoint x="450" y="820" as="targetPoint" />
          </mxGeometry>
        </mxCell>
        <mxCell id="Eq-KSOYSEToP4c7O12Pv-52" value="Credit Card" style="rounded=0;whiteSpace=wrap;html=1;" parent="J34ps1AV-0dYbGwE9PoU-1" vertex="1">
          <mxGeometry x="580" y="615" width="120" height="60" as="geometry" />
        </mxCell>
        <mxCell id="Eq-KSOYSEToP4c7O12Pv-55" value="Business" style="ellipse;whiteSpace=wrap;html=1;" parent="J34ps1AV-0dYbGwE9PoU-1" vertex="1">
          <mxGeometry x="565" y="720" width="110" height="30" as="geometry" />
        </mxCell>
        <mxCell id="Eq-KSOYSEToP4c7O12Pv-56" value="Personal" style="ellipse;whiteSpace=wrap;html=1;" parent="J34ps1AV-0dYbGwE9PoU-1" vertex="1">
          <mxGeometry x="460" y="720" width="100" height="28.23" as="geometry" />
        </mxCell>
        <mxCell id="Eq-KSOYSEToP4c7O12Pv-57" value="Islamic" style="ellipse;whiteSpace=wrap;html=1;" parent="J34ps1AV-0dYbGwE9PoU-1" vertex="1">
          <mxGeometry x="690" y="720" width="110" height="28.23" as="geometry" />
        </mxCell>
        <mxCell id="Eq-KSOYSEToP4c7O12Pv-58" value="" style="endArrow=none;html=1;entryX=0.25;entryY=1;entryDx=0;entryDy=0;exitX=0.5;exitY=0;exitDx=0;exitDy=0;" parent="J34ps1AV-0dYbGwE9PoU-1" source="Eq-KSOYSEToP4c7O12Pv-56" target="Eq-KSOYSEToP4c7O12Pv-52" edge="1">
          <mxGeometry width="50" height="50" relative="1" as="geometry">
            <mxPoint x="400" y="830" as="sourcePoint" />
            <mxPoint x="450" y="780" as="targetPoint" />
          </mxGeometry>
        </mxCell>
        <mxCell id="Eq-KSOYSEToP4c7O12Pv-62" value="" style="endArrow=none;html=1;entryX=0.5;entryY=1;entryDx=0;entryDy=0;" parent="J34ps1AV-0dYbGwE9PoU-1" source="Eq-KSOYSEToP4c7O12Pv-55" target="Eq-KSOYSEToP4c7O12Pv-52" edge="1">
          <mxGeometry width="50" height="50" relative="1" as="geometry">
            <mxPoint x="400" y="830" as="sourcePoint" />
            <mxPoint x="450" y="780" as="targetPoint" />
          </mxGeometry>
        </mxCell>
        <mxCell id="Eq-KSOYSEToP4c7O12Pv-63" value="" style="endArrow=none;html=1;entryX=0.75;entryY=1;entryDx=0;entryDy=0;exitX=0.5;exitY=0;exitDx=0;exitDy=0;" parent="J34ps1AV-0dYbGwE9PoU-1" source="Eq-KSOYSEToP4c7O12Pv-57" target="Eq-KSOYSEToP4c7O12Pv-52" edge="1">
          <mxGeometry width="50" height="50" relative="1" as="geometry">
            <mxPoint x="755" y="735" as="sourcePoint" />
            <mxPoint x="450" y="780" as="targetPoint" />
            <Array as="points" />
          </mxGeometry>
        </mxCell>
        <mxCell id="v1UAePyU6u5tgcxxkWcL-1" value="FK: cust_id" style="ellipse;whiteSpace=wrap;html=1;rounded=0;" parent="J34ps1AV-0dYbGwE9PoU-1" vertex="1">
          <mxGeometry x="500" y="533" width="120" height="35" as="geometry" />
        </mxCell>
        <mxCell id="v1UAePyU6u5tgcxxkWcL-2" value="" style="endArrow=none;html=1;exitX=1;exitY=0.75;exitDx=0;exitDy=0;entryX=0;entryY=0.5;entryDx=0;entryDy=0;" parent="J34ps1AV-0dYbGwE9PoU-1" source="J34ps1AV-0dYbGwE9PoU-39" target="v1UAePyU6u5tgcxxkWcL-1" edge="1">
          <mxGeometry width="50" height="50" relative="1" as="geometry">
            <mxPoint x="440" y="590" as="sourcePoint" />
            <mxPoint x="500" y="557.5" as="targetPoint" />
          </mxGeometry>
        </mxCell>
        <mxCell id="v1UAePyU6u5tgcxxkWcL-3" value="&lt;b&gt;&lt;font style=&quot;font-size: 24px&quot;&gt;ER Diagram&lt;/font&gt;&lt;/b&gt;" style="text;html=1;align=center;verticalAlign=middle;resizable=0;points=[];autosize=1;" parent="J34ps1AV-0dYbGwE9PoU-1" vertex="1">
          <mxGeometry x="305" y="20" width="150" height="20" as="geometry" />
        </mxCell>
        <mxCell id="v1UAePyU6u5tgcxxkWcL-5" value="" style="endArrow=none;html=1;entryX=0;entryY=0;entryDx=0;entryDy=0;exitX=1;exitY=0.5;exitDx=0;exitDy=0;" parent="J34ps1AV-0dYbGwE9PoU-1" source="v1UAePyU6u5tgcxxkWcL-12" target="Eq-KSOYSEToP4c7O12Pv-0" edge="1">
          <mxGeometry width="50" height="50" relative="1" as="geometry">
            <mxPoint x="60" y="605" as="sourcePoint" />
            <mxPoint x="100" y="650" as="targetPoint" />
          </mxGeometry>
        </mxCell>
        <mxCell id="v1UAePyU6u5tgcxxkWcL-10" value="" style="endArrow=none;html=1;exitX=1;exitY=0.5;exitDx=0;exitDy=0;" parent="J34ps1AV-0dYbGwE9PoU-1" source="v1UAePyU6u5tgcxxkWcL-13" edge="1">
          <mxGeometry width="50" height="50" relative="1" as="geometry">
            <mxPoint x="60" y="745" as="sourcePoint" />
            <mxPoint x="170" y="700" as="targetPoint" />
          </mxGeometry>
        </mxCell>
        <mxCell id="v1UAePyU6u5tgcxxkWcL-12" value="Quad/Sharing" style="ellipse;whiteSpace=wrap;html=1;" parent="J34ps1AV-0dYbGwE9PoU-1" vertex="1">
          <mxGeometry x="-70" y="575" width="120" height="50" as="geometry" />
        </mxCell>
        <mxCell id="v1UAePyU6u5tgcxxkWcL-13" value="Double: Additional Price xxx" style="ellipse;whiteSpace=wrap;html=1;" parent="J34ps1AV-0dYbGwE9PoU-1" vertex="1">
          <mxGeometry x="-70" y="700" width="120" height="50" as="geometry" />
        </mxCell>
        <mxCell id="v1UAePyU6u5tgcxxkWcL-14" value="" style="endArrow=none;html=1;entryX=0;entryY=0.5;entryDx=0;entryDy=0;exitX=1;exitY=0.5;exitDx=0;exitDy=0;" parent="J34ps1AV-0dYbGwE9PoU-1" source="v1UAePyU6u5tgcxxkWcL-15" target="Eq-KSOYSEToP4c7O12Pv-0" edge="1">
          <mxGeometry width="50" height="50" relative="1" as="geometry">
            <mxPoint x="60" y="675" as="sourcePoint" />
            <mxPoint x="-10" y="660" as="targetPoint" />
          </mxGeometry>
        </mxCell>
        <mxCell id="v1UAePyU6u5tgcxxkWcL-15" value="Triple: additional Price xxx" style="ellipse;whiteSpace=wrap;html=1;" parent="J34ps1AV-0dYbGwE9PoU-1" vertex="1">
          <mxGeometry x="-70" y="635" width="120" height="50" as="geometry" />
        </mxCell>
        <mxCell id="CwO5XdKYK47WPIl5PuiQ-5" value="" style="endArrow=none;html=1;entryX=0.5;entryY=1;entryDx=0;entryDy=0;exitX=0.5;exitY=0;exitDx=0;exitDy=0;" parent="J34ps1AV-0dYbGwE9PoU-1" source="J34ps1AV-0dYbGwE9PoU-24" target="CwO5XdKYK47WPIl5PuiQ-2" edge="1">
          <mxGeometry width="50" height="50" relative="1" as="geometry">
            <mxPoint x="300" y="340" as="sourcePoint" />
            <mxPoint x="350" y="290" as="targetPoint" />
          </mxGeometry>
        </mxCell>
        <mxCell id="CwO5XdKYK47WPIl5PuiQ-6" value="Admin" style="whiteSpace=wrap;html=1;rounded=0;" parent="J34ps1AV-0dYbGwE9PoU-1" vertex="1">
          <mxGeometry x="320" y="80" width="120" height="30" as="geometry" />
        </mxCell>
        <mxCell id="CwO5XdKYK47WPIl5PuiQ-2" value="Manage" style="rhombus;whiteSpace=wrap;html=1;rounded=0;" parent="J34ps1AV-0dYbGwE9PoU-1" vertex="1">
          <mxGeometry x="340" y="160" width="80" height="70" as="geometry" />
        </mxCell>
        <mxCell id="CwO5XdKYK47WPIl5PuiQ-8" value="" style="endArrow=none;html=1;exitX=0.5;exitY=0;exitDx=0;exitDy=0;entryX=0.5;entryY=1;entryDx=0;entryDy=0;" parent="J34ps1AV-0dYbGwE9PoU-1" source="CwO5XdKYK47WPIl5PuiQ-2" target="CwO5XdKYK47WPIl5PuiQ-6" edge="1">
          <mxGeometry width="50" height="50" relative="1" as="geometry">
            <mxPoint x="300" y="140" as="sourcePoint" />
            <mxPoint x="350" y="90" as="targetPoint" />
          </mxGeometry>
        </mxCell>
        <mxCell id="tCi2J_QRliJAJE965hvc-0" value="&lt;span&gt;FK: cus_id&lt;/span&gt;" style="ellipse;whiteSpace=wrap;html=1;rounded=0;" parent="J34ps1AV-0dYbGwE9PoU-1" vertex="1">
          <mxGeometry x="100" y="72.5" width="120" height="45" as="geometry" />
        </mxCell>
        <mxCell id="tCi2J_QRliJAJE965hvc-1" value="" style="endArrow=none;html=1;entryX=1;entryY=0.5;entryDx=0;entryDy=0;exitX=0;exitY=0.25;exitDx=0;exitDy=0;" parent="J34ps1AV-0dYbGwE9PoU-1" source="CwO5XdKYK47WPIl5PuiQ-6" target="tCi2J_QRliJAJE965hvc-0" edge="1">
          <mxGeometry width="50" height="50" relative="1" as="geometry">
            <mxPoint x="270" y="118.75" as="sourcePoint" />
            <mxPoint x="230" y="255" as="targetPoint" />
            <Array as="points" />
          </mxGeometry>
        </mxCell>
        <mxCell id="tCi2J_QRliJAJE965hvc-2" value="&lt;span&gt;PK: cus_id&lt;/span&gt;" style="ellipse;whiteSpace=wrap;html=1;rounded=0;" parent="J34ps1AV-0dYbGwE9PoU-1" vertex="1">
          <mxGeometry x="130" y="320" width="120" height="45" as="geometry" />
        </mxCell>
        <mxCell id="tCi2J_QRliJAJE965hvc-3" value="" style="endArrow=none;html=1;entryX=1;entryY=0.5;entryDx=0;entryDy=0;exitX=0;exitY=0.75;exitDx=0;exitDy=0;" parent="J34ps1AV-0dYbGwE9PoU-1" target="tCi2J_QRliJAJE965hvc-2" edge="1">
          <mxGeometry width="50" height="50" relative="1" as="geometry">
            <mxPoint x="330" y="328.75" as="sourcePoint" />
            <mxPoint x="290" y="465" as="targetPoint" />
            <Array as="points" />
          </mxGeometry>
        </mxCell>
        <mxCell id="tCi2J_QRliJAJE965hvc-4" value="PK: User_Id" style="ellipse;whiteSpace=wrap;html=1;rounded=0;" parent="J34ps1AV-0dYbGwE9PoU-1" vertex="1">
          <mxGeometry x="535" y="40" width="120" height="50" as="geometry" />
        </mxCell>
        <mxCell id="tCi2J_QRliJAJE965hvc-6" style="edgeStyle=orthogonalEdgeStyle;rounded=0;orthogonalLoop=1;jettySize=auto;html=1;exitX=0.5;exitY=1;exitDx=0;exitDy=0;" parent="J34ps1AV-0dYbGwE9PoU-1" source="tCi2J_QRliJAJE965hvc-4" target="tCi2J_QRliJAJE965hvc-4" edge="1">
          <mxGeometry relative="1" as="geometry" />
        </mxCell>
        <mxCell id="tCi2J_QRliJAJE965hvc-9" value="Password" style="ellipse;whiteSpace=wrap;html=1;rounded=0;" parent="J34ps1AV-0dYbGwE9PoU-1" vertex="1">
          <mxGeometry x="530" y="130" width="120" height="50" as="geometry" />
        </mxCell>
        <mxCell id="tCi2J_QRliJAJE965hvc-10" value="" style="endArrow=none;html=1;exitX=1;exitY=1;exitDx=0;exitDy=0;" parent="J34ps1AV-0dYbGwE9PoU-1" source="CwO5XdKYK47WPIl5PuiQ-6" target="tCi2J_QRliJAJE965hvc-9" edge="1">
          <mxGeometry width="50" height="50" relative="1" as="geometry">
            <mxPoint x="350" y="260" as="sourcePoint" />
            <mxPoint x="400" y="210" as="targetPoint" />
          </mxGeometry>
        </mxCell>
        <mxCell id="tCi2J_QRliJAJE965hvc-11" value="" style="endArrow=none;html=1;entryX=0;entryY=0.5;entryDx=0;entryDy=0;exitX=1;exitY=0.25;exitDx=0;exitDy=0;" parent="J34ps1AV-0dYbGwE9PoU-1" source="CwO5XdKYK47WPIl5PuiQ-6" target="tCi2J_QRliJAJE965hvc-4" edge="1">
          <mxGeometry width="50" height="50" relative="1" as="geometry">
            <mxPoint x="450" y="170" as="sourcePoint" />
            <mxPoint x="647.5735931288073" y="188.2842712474619" as="targetPoint" />
          </mxGeometry>
        </mxCell>
        <mxCell id="BMSr-AgtaQ0yklqcXmbV-4" value="1" style="text;html=1;strokeColor=none;fillColor=none;align=center;verticalAlign=middle;whiteSpace=wrap;rounded=0;" parent="J34ps1AV-0dYbGwE9PoU-1" vertex="1">
          <mxGeometry x="340" y="110" width="60" height="30" as="geometry" />
        </mxCell>
        <mxCell id="BMSr-AgtaQ0yklqcXmbV-6" value="1" style="text;html=1;strokeColor=none;fillColor=none;align=center;verticalAlign=middle;whiteSpace=wrap;rounded=0;" parent="J34ps1AV-0dYbGwE9PoU-1" vertex="1">
          <mxGeometry x="340" y="470" width="60" height="30" as="geometry" />
        </mxCell>
        <mxCell id="BMSr-AgtaQ0yklqcXmbV-7" value="1" style="text;html=1;strokeColor=none;fillColor=none;align=center;verticalAlign=middle;whiteSpace=wrap;rounded=0;" parent="J34ps1AV-0dYbGwE9PoU-1" vertex="1">
          <mxGeometry x="330" y="560" width="60" height="30" as="geometry" />
        </mxCell>
        <mxCell id="BMSr-AgtaQ0yklqcXmbV-13" value="" style="fontSize=12;html=1;endArrow=ERzeroToMany;endFill=1;rounded=0;exitX=0.5;exitY=1;exitDx=0;exitDy=0;entryX=0.5;entryY=0;entryDx=0;entryDy=0;" parent="J34ps1AV-0dYbGwE9PoU-1" source="CwO5XdKYK47WPIl5PuiQ-2" target="J34ps1AV-0dYbGwE9PoU-24" edge="1">
          <mxGeometry width="100" height="100" relative="1" as="geometry">
            <mxPoint x="-140" y="390" as="sourcePoint" />
            <mxPoint x="-50" y="310" as="targetPoint" />
          </mxGeometry>
        </mxCell>
        <mxCell id="BMSr-AgtaQ0yklqcXmbV-14" value="" style="fontSize=12;html=1;endArrow=ERzeroToMany;endFill=1;rounded=0;entryX=0.5;entryY=1;entryDx=0;entryDy=0;exitX=0.5;exitY=0;exitDx=0;exitDy=0;" parent="J34ps1AV-0dYbGwE9PoU-1" source="J34ps1AV-0dYbGwE9PoU-37" target="J34ps1AV-0dYbGwE9PoU-24" edge="1">
          <mxGeometry width="100" height="100" relative="1" as="geometry">
            <mxPoint x="310" y="460" as="sourcePoint" />
            <mxPoint x="310" y="365" as="targetPoint" />
          </mxGeometry>
        </mxCell>
        <mxCell id="BMSr-AgtaQ0yklqcXmbV-15" value="" style="edgeStyle=entityRelationEdgeStyle;fontSize=12;html=1;endArrow=ERzeroToMany;endFill=1;rounded=0;entryX=0;entryY=0.75;entryDx=0;entryDy=0;exitX=1;exitY=0;exitDx=0;exitDy=0;" parent="J34ps1AV-0dYbGwE9PoU-1" source="J34ps1AV-0dYbGwE9PoU-56" target="Eq-KSOYSEToP4c7O12Pv-52" edge="1">
          <mxGeometry width="100" height="100" relative="1" as="geometry">
            <mxPoint x="-190" y="690" as="sourcePoint" />
            <mxPoint x="-90" y="590" as="targetPoint" />
          </mxGeometry>
        </mxCell>
        <mxCell id="BMSr-AgtaQ0yklqcXmbV-16" value="" style="edgeStyle=entityRelationEdgeStyle;fontSize=12;html=1;endArrow=ERzeroToMany;endFill=1;rounded=0;entryX=0;entryY=0.5;entryDx=0;entryDy=0;" parent="J34ps1AV-0dYbGwE9PoU-1" source="J34ps1AV-0dYbGwE9PoU-56" target="J34ps1AV-0dYbGwE9PoU-58" edge="1">
          <mxGeometry width="100" height="100" relative="1" as="geometry">
            <mxPoint x="440" y="1076.77" as="sourcePoint" />
            <mxPoint x="540" y="976.77" as="targetPoint" />
          </mxGeometry>
        </mxCell>
        <mxCell id="BMSr-AgtaQ0yklqcXmbV-17" value="" style="fontSize=12;html=1;endArrow=ERzeroToMany;endFill=1;rounded=0;exitX=0.5;exitY=1;exitDx=0;exitDy=0;entryX=0.5;entryY=0;entryDx=0;entryDy=0;" parent="J34ps1AV-0dYbGwE9PoU-1" source="J34ps1AV-0dYbGwE9PoU-56" target="J34ps1AV-0dYbGwE9PoU-66" edge="1">
          <mxGeometry width="100" height="100" relative="1" as="geometry">
            <mxPoint x="-170" y="940" as="sourcePoint" />
            <mxPoint x="-70" y="840" as="targetPoint" />
          </mxGeometry>
        </mxCell>
        <mxCell id="BMSr-AgtaQ0yklqcXmbV-18" value="" style="fontSize=12;html=1;endArrow=ERzeroToMany;endFill=1;rounded=0;exitX=0;exitY=1;exitDx=0;exitDy=0;edgeStyle=orthogonalEdgeStyle;" parent="J34ps1AV-0dYbGwE9PoU-1" source="J34ps1AV-0dYbGwE9PoU-56" target="Eq-KSOYSEToP4c7O12Pv-44" edge="1">
          <mxGeometry width="100" height="100" relative="1" as="geometry">
            <mxPoint x="-100" y="920" as="sourcePoint" />
            <mxPoint x="310" y="750" as="targetPoint" />
            <Array as="points">
              <mxPoint x="360" y="720" />
              <mxPoint x="210" y="720" />
            </Array>
          </mxGeometry>
        </mxCell>
        <mxCell id="BMSr-AgtaQ0yklqcXmbV-19" value="" style="fontSize=12;html=1;endArrow=ERzeroToMany;endFill=1;rounded=0;exitX=0;exitY=0.5;exitDx=0;exitDy=0;" parent="J34ps1AV-0dYbGwE9PoU-1" source="J34ps1AV-0dYbGwE9PoU-56" target="Eq-KSOYSEToP4c7O12Pv-0" edge="1">
          <mxGeometry width="100" height="100" relative="1" as="geometry">
            <mxPoint x="-120" y="928.23" as="sourcePoint" />
            <mxPoint x="-20" y="828.23" as="targetPoint" />
          </mxGeometry>
        </mxCell>
      </root>
    </mxGraphModel>
  </diagram>
  <diagram id="hPYTOxXC1SvDE06SUiqj" name="Page-3">
    <mxGraphModel dx="868" dy="482" grid="1" gridSize="10" guides="1" tooltips="1" connect="1" arrows="1" fold="1" page="1" pageScale="1" pageWidth="850" pageHeight="1100" math="0" shadow="0">
      <root>
        <mxCell id="Sourvw7roUYQqsdAXIEW-0" />
        <mxCell id="Sourvw7roUYQqsdAXIEW-1" parent="Sourvw7roUYQqsdAXIEW-0" />
        <mxCell id="I1JFDoono6Ztwf14h-6Z-1" style="edgeStyle=orthogonalEdgeStyle;rounded=0;orthogonalLoop=1;jettySize=auto;html=1;exitX=0.5;exitY=1;exitDx=0;exitDy=0;entryX=0.5;entryY=0;entryDx=0;entryDy=0;" parent="Sourvw7roUYQqsdAXIEW-1" source="Sourvw7roUYQqsdAXIEW-2" target="I1JFDoono6Ztwf14h-6Z-0" edge="1">
          <mxGeometry relative="1" as="geometry" />
        </mxCell>
        <mxCell id="Sourvw7roUYQqsdAXIEW-2" value="Mobile" style="rounded=0;whiteSpace=wrap;html=1;" parent="Sourvw7roUYQqsdAXIEW-1" vertex="1">
          <mxGeometry x="330" y="190" width="120" height="60" as="geometry" />
        </mxCell>
        <mxCell id="I1JFDoono6Ztwf14h-6Z-5" value="" style="edgeStyle=orthogonalEdgeStyle;rounded=0;orthogonalLoop=1;jettySize=auto;html=1;" parent="Sourvw7roUYQqsdAXIEW-1" source="Sourvw7roUYQqsdAXIEW-3" target="I1JFDoono6Ztwf14h-6Z-4" edge="1">
          <mxGeometry relative="1" as="geometry" />
        </mxCell>
        <mxCell id="Sourvw7roUYQqsdAXIEW-3" value="Application" style="whiteSpace=wrap;html=1;rounded=0;" parent="Sourvw7roUYQqsdAXIEW-1" vertex="1">
          <mxGeometry x="330" y="450" width="120" height="60" as="geometry" />
        </mxCell>
        <mxCell id="BHhTrmjkH121hCaPVTa--3" value="" style="edgeStyle=orthogonalEdgeStyle;rounded=0;orthogonalLoop=1;jettySize=auto;html=1;" parent="Sourvw7roUYQqsdAXIEW-1" source="BHhTrmjkH121hCaPVTa--0" target="BHhTrmjkH121hCaPVTa--2" edge="1">
          <mxGeometry relative="1" as="geometry" />
        </mxCell>
        <mxCell id="BHhTrmjkH121hCaPVTa--5" value="" style="edgeStyle=orthogonalEdgeStyle;rounded=0;orthogonalLoop=1;jettySize=auto;html=1;" parent="Sourvw7roUYQqsdAXIEW-1" source="BHhTrmjkH121hCaPVTa--0" target="BHhTrmjkH121hCaPVTa--4" edge="1">
          <mxGeometry relative="1" as="geometry" />
        </mxCell>
        <mxCell id="BHhTrmjkH121hCaPVTa--0" value="Users" style="whiteSpace=wrap;html=1;rounded=0;" parent="Sourvw7roUYQqsdAXIEW-1" vertex="1">
          <mxGeometry x="330" y="721" width="120" height="60" as="geometry" />
        </mxCell>
        <mxCell id="KDX-c0rdviZlLM7I7Cfv-1" value="" style="edgeStyle=orthogonalEdgeStyle;rounded=0;orthogonalLoop=1;jettySize=auto;html=1;" parent="Sourvw7roUYQqsdAXIEW-1" source="BHhTrmjkH121hCaPVTa--2" target="KDX-c0rdviZlLM7I7Cfv-0" edge="1">
          <mxGeometry relative="1" as="geometry" />
        </mxCell>
        <mxCell id="BHhTrmjkH121hCaPVTa--2" value="Parent" style="ellipse;whiteSpace=wrap;html=1;rounded=0;" parent="Sourvw7roUYQqsdAXIEW-1" vertex="1">
          <mxGeometry x="140" y="735" width="120" height="30" as="geometry" />
        </mxCell>
        <mxCell id="KDX-c0rdviZlLM7I7Cfv-3" value="" style="edgeStyle=orthogonalEdgeStyle;rounded=0;orthogonalLoop=1;jettySize=auto;html=1;" parent="Sourvw7roUYQqsdAXIEW-1" source="BHhTrmjkH121hCaPVTa--4" target="KDX-c0rdviZlLM7I7Cfv-2" edge="1">
          <mxGeometry relative="1" as="geometry" />
        </mxCell>
        <mxCell id="BHhTrmjkH121hCaPVTa--4" value="Kids" style="ellipse;whiteSpace=wrap;html=1;rounded=0;" parent="Sourvw7roUYQqsdAXIEW-1" vertex="1">
          <mxGeometry x="540" y="732.5" width="120" height="35" as="geometry" />
        </mxCell>
        <mxCell id="KDX-c0rdviZlLM7I7Cfv-0" value="ParentID" style="ellipse;whiteSpace=wrap;html=1;rounded=0;" parent="Sourvw7roUYQqsdAXIEW-1" vertex="1">
          <mxGeometry x="140" y="820" width="120" height="40" as="geometry" />
        </mxCell>
        <mxCell id="KDX-c0rdviZlLM7I7Cfv-2" value="KidsID" style="ellipse;whiteSpace=wrap;html=1;rounded=0;" parent="Sourvw7roUYQqsdAXIEW-1" vertex="1">
          <mxGeometry x="540" y="820" width="120" height="40" as="geometry" />
        </mxCell>
        <mxCell id="I1JFDoono6Ztwf14h-6Z-2" value="" style="edgeStyle=orthogonalEdgeStyle;rounded=0;orthogonalLoop=1;jettySize=auto;html=1;" parent="Sourvw7roUYQqsdAXIEW-1" source="I1JFDoono6Ztwf14h-6Z-0" target="Sourvw7roUYQqsdAXIEW-3" edge="1">
          <mxGeometry relative="1" as="geometry" />
        </mxCell>
        <mxCell id="I1JFDoono6Ztwf14h-6Z-0" value="Has" style="rhombus;whiteSpace=wrap;html=1;" parent="Sourvw7roUYQqsdAXIEW-1" vertex="1">
          <mxGeometry x="350" y="310" width="80" height="80" as="geometry" />
        </mxCell>
        <mxCell id="I1JFDoono6Ztwf14h-6Z-6" value="" style="edgeStyle=orthogonalEdgeStyle;rounded=0;orthogonalLoop=1;jettySize=auto;html=1;" parent="Sourvw7roUYQqsdAXIEW-1" source="I1JFDoono6Ztwf14h-6Z-4" target="BHhTrmjkH121hCaPVTa--0" edge="1">
          <mxGeometry relative="1" as="geometry" />
        </mxCell>
        <mxCell id="I1JFDoono6Ztwf14h-6Z-4" value="Has" style="rhombus;whiteSpace=wrap;html=1;" parent="Sourvw7roUYQqsdAXIEW-1" vertex="1">
          <mxGeometry x="350" y="570" width="80" height="80" as="geometry" />
        </mxCell>
      </root>
    </mxGraphModel>
  </diagram>
  <diagram id="-7YR01oBKSbh7eqg15PL" name="Page-4">
    <mxGraphModel dx="868" dy="482" grid="1" gridSize="10" guides="1" tooltips="1" connect="1" arrows="1" fold="1" page="1" pageScale="1" pageWidth="850" pageHeight="1100" math="0" shadow="0">
      <root>
        <mxCell id="rj9lwU3J95CEhQYdZoat-0" />
        <mxCell id="rj9lwU3J95CEhQYdZoat-1" parent="rj9lwU3J95CEhQYdZoat-0" />
        <mxCell id="rj9lwU3J95CEhQYdZoat-2" value="Requirements" style="rounded=1;whiteSpace=wrap;html=1;" parent="rj9lwU3J95CEhQYdZoat-1" vertex="1">
          <mxGeometry x="40" y="40" width="120" height="60" as="geometry" />
        </mxCell>
        <mxCell id="rj9lwU3J95CEhQYdZoat-3" value="Design" style="rounded=1;whiteSpace=wrap;html=1;" parent="rj9lwU3J95CEhQYdZoat-1" vertex="1">
          <mxGeometry x="120" y="110" width="120" height="60" as="geometry" />
        </mxCell>
        <mxCell id="rj9lwU3J95CEhQYdZoat-4" value="Maintanence" style="rounded=1;whiteSpace=wrap;html=1;" parent="rj9lwU3J95CEhQYdZoat-1" vertex="1">
          <mxGeometry x="440" y="390" width="120" height="60" as="geometry" />
        </mxCell>
        <mxCell id="rj9lwU3J95CEhQYdZoat-5" value="Development" style="rounded=1;whiteSpace=wrap;html=1;" parent="rj9lwU3J95CEhQYdZoat-1" vertex="1">
          <mxGeometry x="200" y="180" width="120" height="60" as="geometry" />
        </mxCell>
        <mxCell id="KdcqNvLNNbu_hlp78bh1-1" style="edgeStyle=orthogonalEdgeStyle;rounded=0;orthogonalLoop=1;jettySize=auto;html=1;" edge="1" parent="rj9lwU3J95CEhQYdZoat-1" source="rj9lwU3J95CEhQYdZoat-6">
          <mxGeometry relative="1" as="geometry">
            <mxPoint x="540" y="390" as="targetPoint" />
          </mxGeometry>
        </mxCell>
        <mxCell id="rj9lwU3J95CEhQYdZoat-6" value="Deployment" style="rounded=1;whiteSpace=wrap;html=1;" parent="rj9lwU3J95CEhQYdZoat-1" vertex="1">
          <mxGeometry x="360" y="320" width="120" height="60" as="geometry" />
        </mxCell>
        <mxCell id="rj9lwU3J95CEhQYdZoat-7" value="Testing" style="rounded=1;whiteSpace=wrap;html=1;" parent="rj9lwU3J95CEhQYdZoat-1" vertex="1">
          <mxGeometry x="280" y="250" width="120" height="60" as="geometry" />
        </mxCell>
        <mxCell id="rj9lwU3J95CEhQYdZoat-9" value="" style="endArrow=none;html=1;rounded=0;" parent="rj9lwU3J95CEhQYdZoat-1" edge="1">
          <mxGeometry width="50" height="50" relative="1" as="geometry">
            <mxPoint x="160" y="69.5" as="sourcePoint" />
            <mxPoint x="200" y="70" as="targetPoint" />
          </mxGeometry>
        </mxCell>
        <mxCell id="rj9lwU3J95CEhQYdZoat-14" value="" style="endArrow=classic;html=1;rounded=0;entryX=0.675;entryY=-0.017;entryDx=0;entryDy=0;entryPerimeter=0;" parent="rj9lwU3J95CEhQYdZoat-1" target="rj9lwU3J95CEhQYdZoat-3" edge="1">
          <mxGeometry width="50" height="50" relative="1" as="geometry">
            <mxPoint x="201" y="70" as="sourcePoint" />
            <mxPoint x="280" y="80" as="targetPoint" />
          </mxGeometry>
        </mxCell>
        <mxCell id="rj9lwU3J95CEhQYdZoat-23" value="" style="endArrow=none;html=1;rounded=0;exitX=1;exitY=0.5;exitDx=0;exitDy=0;" parent="rj9lwU3J95CEhQYdZoat-1" source="rj9lwU3J95CEhQYdZoat-3" edge="1">
          <mxGeometry width="50" height="50" relative="1" as="geometry">
            <mxPoint x="210" y="45.5" as="sourcePoint" />
            <mxPoint x="280" y="140" as="targetPoint" />
          </mxGeometry>
        </mxCell>
        <mxCell id="rj9lwU3J95CEhQYdZoat-24" value="" style="endArrow=classic;html=1;rounded=0;entryX=0.683;entryY=-0.033;entryDx=0;entryDy=0;entryPerimeter=0;" parent="rj9lwU3J95CEhQYdZoat-1" target="rj9lwU3J95CEhQYdZoat-5" edge="1">
          <mxGeometry width="50" height="50" relative="1" as="geometry">
            <mxPoint x="282" y="140" as="sourcePoint" />
            <mxPoint x="251" y="84.98000000000002" as="targetPoint" />
          </mxGeometry>
        </mxCell>
        <mxCell id="rj9lwU3J95CEhQYdZoat-25" value="" style="endArrow=none;html=1;rounded=0;" parent="rj9lwU3J95CEhQYdZoat-1" edge="1">
          <mxGeometry width="50" height="50" relative="1" as="geometry">
            <mxPoint x="320" y="210.52" as="sourcePoint" />
            <mxPoint x="360" y="211.02" as="targetPoint" />
          </mxGeometry>
        </mxCell>
        <mxCell id="rj9lwU3J95CEhQYdZoat-26" value="" style="endArrow=classic;html=1;rounded=0;entryX=0.675;entryY=-0.017;entryDx=0;entryDy=0;entryPerimeter=0;" parent="rj9lwU3J95CEhQYdZoat-1" edge="1">
          <mxGeometry width="50" height="50" relative="1" as="geometry">
            <mxPoint x="361" y="211.02" as="sourcePoint" />
            <mxPoint x="361" y="250.00000000000003" as="targetPoint" />
          </mxGeometry>
        </mxCell>
        <mxCell id="rj9lwU3J95CEhQYdZoat-27" value="" style="endArrow=none;html=1;rounded=0;" parent="rj9lwU3J95CEhQYdZoat-1" edge="1">
          <mxGeometry width="50" height="50" relative="1" as="geometry">
            <mxPoint x="404" y="280.52" as="sourcePoint" />
            <mxPoint x="444" y="281.02" as="targetPoint" />
          </mxGeometry>
        </mxCell>
        <mxCell id="rj9lwU3J95CEhQYdZoat-28" value="" style="endArrow=classic;html=1;rounded=0;entryX=0.675;entryY=-0.017;entryDx=0;entryDy=0;entryPerimeter=0;" parent="rj9lwU3J95CEhQYdZoat-1" edge="1">
          <mxGeometry width="50" height="50" relative="1" as="geometry">
            <mxPoint x="445" y="281.02" as="sourcePoint" />
            <mxPoint x="445" y="320" as="targetPoint" />
          </mxGeometry>
        </mxCell>
      </root>
    </mxGraphModel>
  </diagram>
  <diagram id="o8Hhmyi02Rs3CDBdDbYK" name="Page-5">
    <mxGraphModel dx="2568" dy="482" grid="1" gridSize="10" guides="1" tooltips="1" connect="1" arrows="1" fold="1" page="1" pageScale="1" pageWidth="850" pageHeight="1100" math="0" shadow="0">
      <root>
        <mxCell id="Y1L7bNa00NtnV-SrVzql-0" />
        <mxCell id="Y1L7bNa00NtnV-SrVzql-1" parent="Y1L7bNa00NtnV-SrVzql-0" />
        <mxCell id="NKfVYTYrFahDSiJEYKfN-0" value="Admin" style="swimlane;fontStyle=0;childLayout=stackLayout;horizontal=1;startSize=30;horizontalStack=0;resizeParent=1;resizeParentMax=0;resizeLast=0;collapsible=1;marginBottom=0;" parent="Y1L7bNa00NtnV-SrVzql-1" vertex="1">
          <mxGeometry x="350" y="40" width="140" height="120" as="geometry">
            <mxRectangle x="350" y="40" width="70" height="30" as="alternateBounds" />
          </mxGeometry>
        </mxCell>
        <mxCell id="NKfVYTYrFahDSiJEYKfN-1" value="user_id" style="text;strokeColor=none;fillColor=none;align=left;verticalAlign=middle;spacingLeft=4;spacingRight=4;overflow=hidden;points=[[0,0.5],[1,0.5]];portConstraint=eastwest;rotatable=0;" parent="NKfVYTYrFahDSiJEYKfN-0" vertex="1">
          <mxGeometry y="30" width="140" height="30" as="geometry" />
        </mxCell>
        <mxCell id="NKfVYTYrFahDSiJEYKfN-2" value="cus_id" style="text;strokeColor=none;fillColor=none;align=left;verticalAlign=middle;spacingLeft=4;spacingRight=4;overflow=hidden;points=[[0,0.5],[1,0.5]];portConstraint=eastwest;rotatable=0;" parent="NKfVYTYrFahDSiJEYKfN-0" vertex="1">
          <mxGeometry y="60" width="140" height="30" as="geometry" />
        </mxCell>
        <mxCell id="NKfVYTYrFahDSiJEYKfN-3" value="password" style="text;strokeColor=none;fillColor=none;align=left;verticalAlign=middle;spacingLeft=4;spacingRight=4;overflow=hidden;points=[[0,0.5],[1,0.5]];portConstraint=eastwest;rotatable=0;" parent="NKfVYTYrFahDSiJEYKfN-0" vertex="1">
          <mxGeometry y="90" width="140" height="30" as="geometry" />
        </mxCell>
        <mxCell id="3sJXT6-CEv4_c_VsRtGo-0" value="Customer" style="swimlane;fontStyle=0;childLayout=stackLayout;horizontal=1;startSize=30;horizontalStack=0;resizeParent=1;resizeParentMax=0;resizeLast=0;collapsible=1;marginBottom=0;" parent="Y1L7bNa00NtnV-SrVzql-1" vertex="1">
          <mxGeometry x="350" y="240" width="140" height="150" as="geometry">
            <mxRectangle x="350" y="40" width="70" height="30" as="alternateBounds" />
          </mxGeometry>
        </mxCell>
        <mxCell id="3sJXT6-CEv4_c_VsRtGo-1" value="cus_name" style="text;strokeColor=none;fillColor=none;align=left;verticalAlign=middle;spacingLeft=4;spacingRight=4;overflow=hidden;points=[[0,0.5],[1,0.5]];portConstraint=eastwest;rotatable=0;" parent="3sJXT6-CEv4_c_VsRtGo-0" vertex="1">
          <mxGeometry y="30" width="140" height="30" as="geometry" />
        </mxCell>
        <mxCell id="3sJXT6-CEv4_c_VsRtGo-2" value="cus_id" style="text;strokeColor=none;fillColor=none;align=left;verticalAlign=middle;spacingLeft=4;spacingRight=4;overflow=hidden;points=[[0,0.5],[1,0.5]];portConstraint=eastwest;rotatable=0;" parent="3sJXT6-CEv4_c_VsRtGo-0" vertex="1">
          <mxGeometry y="60" width="140" height="30" as="geometry" />
        </mxCell>
        <mxCell id="3sJXT6-CEv4_c_VsRtGo-3" value="cus_address" style="text;strokeColor=none;fillColor=none;align=left;verticalAlign=middle;spacingLeft=4;spacingRight=4;overflow=hidden;points=[[0,0.5],[1,0.5]];portConstraint=eastwest;rotatable=0;" parent="3sJXT6-CEv4_c_VsRtGo-0" vertex="1">
          <mxGeometry y="90" width="140" height="30" as="geometry" />
        </mxCell>
        <mxCell id="NrqG2CgDFMqcTOp5_Ik7-0" value="cus_phone" style="text;strokeColor=none;fillColor=none;align=left;verticalAlign=middle;spacingLeft=4;spacingRight=4;overflow=hidden;points=[[0,0.5],[1,0.5]];portConstraint=eastwest;rotatable=0;" parent="3sJXT6-CEv4_c_VsRtGo-0" vertex="1">
          <mxGeometry y="120" width="140" height="30" as="geometry" />
        </mxCell>
        <mxCell id="dCHMZpeTv9J-hSfvHC8G-0" value="Chatbot" style="swimlane;fontStyle=0;childLayout=stackLayout;horizontal=1;startSize=30;horizontalStack=0;resizeParent=1;resizeParentMax=0;resizeLast=0;collapsible=1;marginBottom=0;" parent="Y1L7bNa00NtnV-SrVzql-1" vertex="1">
          <mxGeometry x="350" y="476" width="140" height="150" as="geometry">
            <mxRectangle x="350" y="40" width="70" height="30" as="alternateBounds" />
          </mxGeometry>
        </mxCell>
        <mxCell id="dCHMZpeTv9J-hSfvHC8G-1" value="chat_id" style="text;strokeColor=none;fillColor=none;align=left;verticalAlign=middle;spacingLeft=4;spacingRight=4;overflow=hidden;points=[[0,0.5],[1,0.5]];portConstraint=eastwest;rotatable=0;" parent="dCHMZpeTv9J-hSfvHC8G-0" vertex="1">
          <mxGeometry y="30" width="140" height="30" as="geometry" />
        </mxCell>
        <mxCell id="dCHMZpeTv9J-hSfvHC8G-2" value="cus_id" style="text;strokeColor=none;fillColor=none;align=left;verticalAlign=middle;spacingLeft=4;spacingRight=4;overflow=hidden;points=[[0,0.5],[1,0.5]];portConstraint=eastwest;rotatable=0;" parent="dCHMZpeTv9J-hSfvHC8G-0" vertex="1">
          <mxGeometry y="60" width="140" height="30" as="geometry" />
        </mxCell>
        <mxCell id="dCHMZpeTv9J-hSfvHC8G-3" value="chat_name" style="text;strokeColor=none;fillColor=none;align=left;verticalAlign=middle;spacingLeft=4;spacingRight=4;overflow=hidden;points=[[0,0.5],[1,0.5]];portConstraint=eastwest;rotatable=0;" parent="dCHMZpeTv9J-hSfvHC8G-0" vertex="1">
          <mxGeometry y="90" width="140" height="30" as="geometry" />
        </mxCell>
        <mxCell id="dCHMZpeTv9J-hSfvHC8G-4" value="chat_language" style="text;strokeColor=none;fillColor=none;align=left;verticalAlign=middle;spacingLeft=4;spacingRight=4;overflow=hidden;points=[[0,0.5],[1,0.5]];portConstraint=eastwest;rotatable=0;" parent="dCHMZpeTv9J-hSfvHC8G-0" vertex="1">
          <mxGeometry y="120" width="140" height="30" as="geometry" />
        </mxCell>
        <mxCell id="hlSexfl7wDdt-OvoNBN2-3" value="Relation" style="endArrow=open;html=1;endSize=12;startArrow=diamondThin;startSize=14;startFill=0;edgeStyle=orthogonalEdgeStyle;rounded=0;exitX=0.425;exitY=0;exitDx=0;exitDy=0;exitPerimeter=0;" parent="Y1L7bNa00NtnV-SrVzql-1" source="3sJXT6-CEv4_c_VsRtGo-0" edge="1">
          <mxGeometry x="-0.25" y="749" relative="1" as="geometry">
            <mxPoint x="410" y="220" as="sourcePoint" />
            <mxPoint x="409.5" y="160" as="targetPoint" />
            <mxPoint as="offset" />
          </mxGeometry>
        </mxCell>
        <mxCell id="hlSexfl7wDdt-OvoNBN2-4" value="0..n" style="edgeLabel;resizable=0;html=1;align=left;verticalAlign=top;" parent="hlSexfl7wDdt-OvoNBN2-3" connectable="0" vertex="1">
          <mxGeometry x="-1" relative="1" as="geometry">
            <mxPoint x="16" y="-20" as="offset" />
          </mxGeometry>
        </mxCell>
        <mxCell id="hlSexfl7wDdt-OvoNBN2-5" value="1" style="edgeLabel;resizable=0;html=1;align=right;verticalAlign=top;" parent="hlSexfl7wDdt-OvoNBN2-3" connectable="0" vertex="1">
          <mxGeometry x="1" relative="1" as="geometry">
            <mxPoint x="-9" y="10" as="offset" />
          </mxGeometry>
        </mxCell>
        <mxCell id="Sz8LnLmlv4QCuIlFgAuT-0" value="Relation" style="endArrow=open;html=1;endSize=12;startArrow=diamondThin;startSize=14;startFill=0;edgeStyle=orthogonalEdgeStyle;rounded=0;exitX=0.425;exitY=0;exitDx=0;exitDy=0;exitPerimeter=0;" parent="Y1L7bNa00NtnV-SrVzql-1" edge="1">
          <mxGeometry x="-1" y="-641" relative="1" as="geometry">
            <mxPoint x="410" y="390" as="sourcePoint" />
            <mxPoint x="410" y="475" as="targetPoint" />
            <mxPoint x="91" y="-330" as="offset" />
          </mxGeometry>
        </mxCell>
        <mxCell id="Sz8LnLmlv4QCuIlFgAuT-1" value="0..n" style="edgeLabel;resizable=0;html=1;align=left;verticalAlign=top;" parent="Sz8LnLmlv4QCuIlFgAuT-0" connectable="0" vertex="1">
          <mxGeometry x="-1" relative="1" as="geometry">
            <mxPoint x="15" as="offset" />
          </mxGeometry>
        </mxCell>
        <mxCell id="Sz8LnLmlv4QCuIlFgAuT-2" value="1" style="edgeLabel;resizable=0;html=1;align=right;verticalAlign=top;" parent="Sz8LnLmlv4QCuIlFgAuT-0" connectable="0" vertex="1">
          <mxGeometry x="1" relative="1" as="geometry">
            <mxPoint x="-20" y="-25" as="offset" />
          </mxGeometry>
        </mxCell>
        <mxCell id="GO3GGXnu_piRUwo5ZzyH-0" value="Relation" style="endArrow=open;html=1;endSize=12;startArrow=diamondThin;startSize=14;startFill=0;edgeStyle=orthogonalEdgeStyle;rounded=0;exitX=0.425;exitY=0;exitDx=0;exitDy=0;exitPerimeter=0;entryX=-0.029;entryY=0.167;entryDx=0;entryDy=0;entryPerimeter=0;" parent="Y1L7bNa00NtnV-SrVzql-1" target="dCHMZpeTv9J-hSfvHC8G-2" edge="1">
          <mxGeometry x="-0.3858" y="517" relative="1" as="geometry">
            <mxPoint x="100" y="650" as="sourcePoint" />
            <mxPoint x="100" y="570" as="targetPoint" />
            <mxPoint x="-299" y="96" as="offset" />
          </mxGeometry>
        </mxCell>
        <mxCell id="GO3GGXnu_piRUwo5ZzyH-1" value="0..n" style="edgeLabel;resizable=0;html=1;align=left;verticalAlign=top;" parent="GO3GGXnu_piRUwo5ZzyH-0" connectable="0" vertex="1">
          <mxGeometry x="-1" relative="1" as="geometry">
            <mxPoint x="16" y="-30" as="offset" />
          </mxGeometry>
        </mxCell>
        <mxCell id="GO3GGXnu_piRUwo5ZzyH-2" value="1" style="edgeLabel;resizable=0;html=1;align=right;verticalAlign=top;" parent="GO3GGXnu_piRUwo5ZzyH-0" connectable="0" vertex="1">
          <mxGeometry x="1" relative="1" as="geometry">
            <mxPoint x="-9" y="10" as="offset" />
          </mxGeometry>
        </mxCell>
        <mxCell id="t_ullaQRBzWyIwsUwzOB-0" value="Hajj_Pkg" style="swimlane;fontStyle=0;childLayout=stackLayout;horizontal=1;startSize=30;horizontalStack=0;resizeParent=1;resizeParentMax=0;resizeLast=0;collapsible=1;marginBottom=0;" parent="Y1L7bNa00NtnV-SrVzql-1" vertex="1">
          <mxGeometry x="30" y="650" width="140" height="190" as="geometry">
            <mxRectangle x="350" y="40" width="70" height="30" as="alternateBounds" />
          </mxGeometry>
        </mxCell>
        <mxCell id="t_ullaQRBzWyIwsUwzOB-1" value="pkg_id" style="text;strokeColor=none;fillColor=none;align=left;verticalAlign=middle;spacingLeft=4;spacingRight=4;overflow=hidden;points=[[0,0.5],[1,0.5]];portConstraint=eastwest;rotatable=0;" parent="t_ullaQRBzWyIwsUwzOB-0" vertex="1">
          <mxGeometry y="30" width="140" height="30" as="geometry" />
        </mxCell>
        <mxCell id="t_ullaQRBzWyIwsUwzOB-2" value="pkg_name" style="text;strokeColor=none;fillColor=none;align=left;verticalAlign=middle;spacingLeft=4;spacingRight=4;overflow=hidden;points=[[0,0.5],[1,0.5]];portConstraint=eastwest;rotatable=0;" parent="t_ullaQRBzWyIwsUwzOB-0" vertex="1">
          <mxGeometry y="60" width="140" height="30" as="geometry" />
        </mxCell>
        <mxCell id="t_ullaQRBzWyIwsUwzOB-3" value="pkg_details" style="text;strokeColor=none;fillColor=none;align=left;verticalAlign=middle;spacingLeft=4;spacingRight=4;overflow=hidden;points=[[0,0.5],[1,0.5]];portConstraint=eastwest;rotatable=0;" parent="t_ullaQRBzWyIwsUwzOB-0" vertex="1">
          <mxGeometry y="90" width="140" height="30" as="geometry" />
        </mxCell>
        <mxCell id="t_ullaQRBzWyIwsUwzOB-4" value="pkg_sharing_info" style="text;strokeColor=none;fillColor=none;align=left;verticalAlign=middle;spacingLeft=4;spacingRight=4;overflow=hidden;points=[[0,0.5],[1,0.5]];portConstraint=eastwest;rotatable=0;" parent="t_ullaQRBzWyIwsUwzOB-0" vertex="1">
          <mxGeometry y="120" width="140" height="30" as="geometry" />
        </mxCell>
        <mxCell id="t9b_agJ6nfdBMTfooepY-5" value="" style="line;strokeWidth=1;rotatable=0;dashed=0;labelPosition=right;align=left;verticalAlign=middle;spacingTop=0;spacingLeft=6;points=[];portConstraint=eastwest;" parent="t_ullaQRBzWyIwsUwzOB-0" vertex="1">
          <mxGeometry y="150" width="140" height="10" as="geometry" />
        </mxCell>
        <mxCell id="t9b_agJ6nfdBMTfooepY-0" value="double: additional_price" style="text;strokeColor=none;fillColor=none;align=left;verticalAlign=middle;spacingLeft=4;spacingRight=4;overflow=hidden;points=[[0,0.5],[1,0.5]];portConstraint=eastwest;rotatable=0;" parent="t_ullaQRBzWyIwsUwzOB-0" vertex="1">
          <mxGeometry y="160" width="140" height="30" as="geometry" />
        </mxCell>
        <mxCell id="N6eHLtbykz3ogueq_N-P-0" value="card_info" style="swimlane;fontStyle=0;childLayout=stackLayout;horizontal=1;startSize=30;horizontalStack=0;resizeParent=1;resizeParentMax=0;resizeLast=0;collapsible=1;marginBottom=0;" parent="Y1L7bNa00NtnV-SrVzql-1" vertex="1">
          <mxGeometry x="210" y="720" width="140" height="190" as="geometry">
            <mxRectangle x="350" y="40" width="70" height="30" as="alternateBounds" />
          </mxGeometry>
        </mxCell>
        <mxCell id="N6eHLtbykz3ogueq_N-P-1" value="card_id" style="text;strokeColor=none;fillColor=none;align=left;verticalAlign=middle;spacingLeft=4;spacingRight=4;overflow=hidden;points=[[0,0.5],[1,0.5]];portConstraint=eastwest;rotatable=0;" parent="N6eHLtbykz3ogueq_N-P-0" vertex="1">
          <mxGeometry y="30" width="140" height="30" as="geometry" />
        </mxCell>
        <mxCell id="N6eHLtbykz3ogueq_N-P-2" value="card_name" style="text;strokeColor=none;fillColor=none;align=left;verticalAlign=middle;spacingLeft=4;spacingRight=4;overflow=hidden;points=[[0,0.5],[1,0.5]];portConstraint=eastwest;rotatable=0;" parent="N6eHLtbykz3ogueq_N-P-0" vertex="1">
          <mxGeometry y="60" width="140" height="30" as="geometry" />
        </mxCell>
        <mxCell id="N6eHLtbykz3ogueq_N-P-5" value="" style="line;strokeWidth=1;rotatable=0;dashed=0;labelPosition=right;align=left;verticalAlign=middle;spacingTop=0;spacingLeft=6;points=[];portConstraint=eastwest;" parent="N6eHLtbykz3ogueq_N-P-0" vertex="1">
          <mxGeometry y="90" width="140" height="10" as="geometry" />
        </mxCell>
        <mxCell id="N6eHLtbykz3ogueq_N-P-6" value="double: silver_card" style="text;strokeColor=none;fillColor=none;align=left;verticalAlign=middle;spacingLeft=4;spacingRight=4;overflow=hidden;points=[[0,0.5],[1,0.5]];portConstraint=eastwest;rotatable=0;" parent="N6eHLtbykz3ogueq_N-P-0" vertex="1">
          <mxGeometry y="100" width="140" height="30" as="geometry" />
        </mxCell>
        <mxCell id="dctHm-mq9dRe5DmXxfzm-1" value="double: gold_card" style="text;strokeColor=none;fillColor=none;align=left;verticalAlign=middle;spacingLeft=4;spacingRight=4;overflow=hidden;points=[[0,0.5],[1,0.5]];portConstraint=eastwest;rotatable=0;" parent="N6eHLtbykz3ogueq_N-P-0" vertex="1">
          <mxGeometry y="130" width="140" height="30" as="geometry" />
        </mxCell>
        <mxCell id="dctHm-mq9dRe5DmXxfzm-2" value="double: platinum_card" style="text;strokeColor=none;fillColor=none;align=left;verticalAlign=middle;spacingLeft=4;spacingRight=4;overflow=hidden;points=[[0,0.5],[1,0.5]];portConstraint=eastwest;rotatable=0;" parent="N6eHLtbykz3ogueq_N-P-0" vertex="1">
          <mxGeometry y="160" width="140" height="30" as="geometry" />
        </mxCell>
        <mxCell id="N6eHLtbykz3ogueq_N-P-9" value="Relation" style="endArrow=open;html=1;endSize=12;startArrow=diamondThin;startSize=14;startFill=0;edgeStyle=orthogonalEdgeStyle;rounded=0;entryX=0;entryY=0.5;entryDx=0;entryDy=0;" parent="Y1L7bNa00NtnV-SrVzql-1" target="dCHMZpeTv9J-hSfvHC8G-4" edge="1">
          <mxGeometry x="-0.3858" y="478" relative="1" as="geometry">
            <mxPoint x="300" y="720" as="sourcePoint" />
            <mxPoint x="555.94" y="571.01" as="targetPoint" />
            <mxPoint x="-80" y="7" as="offset" />
          </mxGeometry>
        </mxCell>
        <mxCell id="N6eHLtbykz3ogueq_N-P-10" value="0..n" style="edgeLabel;resizable=0;html=1;align=left;verticalAlign=top;" parent="N6eHLtbykz3ogueq_N-P-9" connectable="0" vertex="1">
          <mxGeometry x="-1" relative="1" as="geometry">
            <mxPoint x="16" y="-30" as="offset" />
          </mxGeometry>
        </mxCell>
        <mxCell id="N6eHLtbykz3ogueq_N-P-11" value="1" style="edgeLabel;resizable=0;html=1;align=right;verticalAlign=top;" parent="N6eHLtbykz3ogueq_N-P-9" connectable="0" vertex="1">
          <mxGeometry x="1" relative="1" as="geometry">
            <mxPoint x="-9" y="10" as="offset" />
          </mxGeometry>
        </mxCell>
        <mxCell id="t2P5ndb18aI_U4hZjwjf-0" value="Relation" style="endArrow=open;html=1;endSize=12;startArrow=diamondThin;startSize=14;startFill=0;edgeStyle=orthogonalEdgeStyle;rounded=0;entryX=0.421;entryY=1.1;entryDx=0;entryDy=0;entryPerimeter=0;" parent="Y1L7bNa00NtnV-SrVzql-1" target="dCHMZpeTv9J-hSfvHC8G-4" edge="1">
          <mxGeometry x="-1" y="852" relative="1" as="geometry">
            <mxPoint x="409" y="970" as="sourcePoint" />
            <mxPoint x="620" y="820" as="targetPoint" />
            <Array as="points">
              <mxPoint x="409" y="950" />
            </Array>
            <mxPoint x="-440" y="122" as="offset" />
          </mxGeometry>
        </mxCell>
        <mxCell id="t2P5ndb18aI_U4hZjwjf-1" value="0..n" style="edgeLabel;resizable=0;html=1;align=left;verticalAlign=top;" parent="t2P5ndb18aI_U4hZjwjf-0" connectable="0" vertex="1">
          <mxGeometry x="-1" relative="1" as="geometry">
            <mxPoint x="11" y="-40" as="offset" />
          </mxGeometry>
        </mxCell>
        <mxCell id="t2P5ndb18aI_U4hZjwjf-2" value="1" style="edgeLabel;resizable=0;html=1;align=right;verticalAlign=top;" parent="t2P5ndb18aI_U4hZjwjf-0" connectable="0" vertex="1">
          <mxGeometry x="1" relative="1" as="geometry">
            <mxPoint x="-19" as="offset" />
          </mxGeometry>
        </mxCell>
        <mxCell id="t2P5ndb18aI_U4hZjwjf-3" value="loan_info" style="swimlane;fontStyle=0;childLayout=stackLayout;horizontal=1;startSize=30;horizontalStack=0;resizeParent=1;resizeParentMax=0;resizeLast=0;collapsible=1;marginBottom=0;" parent="Y1L7bNa00NtnV-SrVzql-1" vertex="1">
          <mxGeometry x="340" y="970" width="140" height="160" as="geometry">
            <mxRectangle x="350" y="40" width="70" height="30" as="alternateBounds" />
          </mxGeometry>
        </mxCell>
        <mxCell id="t2P5ndb18aI_U4hZjwjf-4" value="loan_id" style="text;strokeColor=none;fillColor=none;align=left;verticalAlign=middle;spacingLeft=4;spacingRight=4;overflow=hidden;points=[[0,0.5],[1,0.5]];portConstraint=eastwest;rotatable=0;" parent="t2P5ndb18aI_U4hZjwjf-3" vertex="1">
          <mxGeometry y="30" width="140" height="30" as="geometry" />
        </mxCell>
        <mxCell id="t2P5ndb18aI_U4hZjwjf-5" value="loan_type" style="text;strokeColor=none;fillColor=none;align=left;verticalAlign=middle;spacingLeft=4;spacingRight=4;overflow=hidden;points=[[0,0.5],[1,0.5]];portConstraint=eastwest;rotatable=0;" parent="t2P5ndb18aI_U4hZjwjf-3" vertex="1">
          <mxGeometry y="60" width="140" height="30" as="geometry" />
        </mxCell>
        <mxCell id="t2P5ndb18aI_U4hZjwjf-7" value="loan_amount" style="text;strokeColor=none;fillColor=none;align=left;verticalAlign=middle;spacingLeft=4;spacingRight=4;overflow=hidden;points=[[0,0.5],[1,0.5]];portConstraint=eastwest;rotatable=0;" parent="t2P5ndb18aI_U4hZjwjf-3" vertex="1">
          <mxGeometry y="90" width="140" height="30" as="geometry" />
        </mxCell>
        <mxCell id="t2P5ndb18aI_U4hZjwjf-6" value="" style="line;strokeWidth=1;rotatable=0;dashed=0;labelPosition=right;align=left;verticalAlign=middle;spacingTop=0;spacingLeft=6;points=[];portConstraint=eastwest;" parent="t2P5ndb18aI_U4hZjwjf-3" vertex="1">
          <mxGeometry y="120" width="140" height="10" as="geometry" />
        </mxCell>
        <mxCell id="t2P5ndb18aI_U4hZjwjf-8" value="String: loan_details" style="text;strokeColor=none;fillColor=none;align=left;verticalAlign=middle;spacingLeft=4;spacingRight=4;overflow=hidden;points=[[0,0.5],[1,0.5]];portConstraint=eastwest;rotatable=0;" parent="t2P5ndb18aI_U4hZjwjf-3" vertex="1">
          <mxGeometry y="130" width="140" height="30" as="geometry" />
        </mxCell>
        <mxCell id="7sIXTusMIr-dH_3N7N54-2" value="" style="endArrow=open;endFill=1;endSize=12;html=1;rounded=0;exitX=-0.021;exitY=-0.1;exitDx=0;exitDy=0;exitPerimeter=0;" parent="Y1L7bNa00NtnV-SrVzql-1" source="t2P5ndb18aI_U4hZjwjf-7" edge="1">
          <mxGeometry width="160" relative="1" as="geometry">
            <mxPoint x="120" y="1330" as="sourcePoint" />
            <mxPoint x="230" y="1090" as="targetPoint" />
            <Array as="points">
              <mxPoint x="230" y="1057" />
            </Array>
          </mxGeometry>
        </mxCell>
        <mxCell id="1pDsim1pctNgRM9aVX2i-5" value="loan_type" style="swimlane;fontStyle=0;childLayout=stackLayout;horizontal=1;startSize=30;horizontalStack=0;resizeParent=1;resizeParentMax=0;resizeLast=0;collapsible=1;marginBottom=0;" parent="Y1L7bNa00NtnV-SrVzql-1" vertex="1">
          <mxGeometry x="154" y="1091" width="140" height="190" as="geometry">
            <mxRectangle x="350" y="40" width="70" height="30" as="alternateBounds" />
          </mxGeometry>
        </mxCell>
        <mxCell id="1pDsim1pctNgRM9aVX2i-6" value="loan_type_id" style="text;strokeColor=none;fillColor=none;align=left;verticalAlign=middle;spacingLeft=4;spacingRight=4;overflow=hidden;points=[[0,0.5],[1,0.5]];portConstraint=eastwest;rotatable=0;" parent="1pDsim1pctNgRM9aVX2i-5" vertex="1">
          <mxGeometry y="30" width="140" height="30" as="geometry" />
        </mxCell>
        <mxCell id="1pDsim1pctNgRM9aVX2i-7" value="loan_type_name" style="text;strokeColor=none;fillColor=none;align=left;verticalAlign=middle;spacingLeft=4;spacingRight=4;overflow=hidden;points=[[0,0.5],[1,0.5]];portConstraint=eastwest;rotatable=0;" parent="1pDsim1pctNgRM9aVX2i-5" vertex="1">
          <mxGeometry y="60" width="140" height="30" as="geometry" />
        </mxCell>
        <mxCell id="1pDsim1pctNgRM9aVX2i-9" value="" style="line;strokeWidth=1;rotatable=0;dashed=0;labelPosition=right;align=left;verticalAlign=middle;spacingTop=0;spacingLeft=6;points=[];portConstraint=eastwest;" parent="1pDsim1pctNgRM9aVX2i-5" vertex="1">
          <mxGeometry y="90" width="140" height="10" as="geometry" />
        </mxCell>
        <mxCell id="1pDsim1pctNgRM9aVX2i-10" value="String: educational_loan" style="text;strokeColor=none;fillColor=none;align=left;verticalAlign=middle;spacingLeft=4;spacingRight=4;overflow=hidden;points=[[0,0.5],[1,0.5]];portConstraint=eastwest;rotatable=0;" parent="1pDsim1pctNgRM9aVX2i-5" vertex="1">
          <mxGeometry y="100" width="140" height="30" as="geometry" />
        </mxCell>
        <mxCell id="EvniG8qk1XE_8Q5Gxyi2-0" value="String: personal_loan" style="text;strokeColor=none;fillColor=none;align=left;verticalAlign=middle;spacingLeft=4;spacingRight=4;overflow=hidden;points=[[0,0.5],[1,0.5]];portConstraint=eastwest;rotatable=0;" parent="1pDsim1pctNgRM9aVX2i-5" vertex="1">
          <mxGeometry y="130" width="140" height="30" as="geometry" />
        </mxCell>
        <mxCell id="EvniG8qk1XE_8Q5Gxyi2-1" value="String: business_loan" style="text;strokeColor=none;fillColor=none;align=left;verticalAlign=middle;spacingLeft=4;spacingRight=4;overflow=hidden;points=[[0,0.5],[1,0.5]];portConstraint=eastwest;rotatable=0;" parent="1pDsim1pctNgRM9aVX2i-5" vertex="1">
          <mxGeometry y="160" width="140" height="30" as="geometry" />
        </mxCell>
        <mxCell id="wEBtVkF_9zSbWAXrUxgS-0" value="Relation" style="endArrow=open;html=1;endSize=12;startArrow=diamondThin;startSize=14;startFill=0;edgeStyle=orthogonalEdgeStyle;rounded=0;" parent="Y1L7bNa00NtnV-SrVzql-1" edge="1">
          <mxGeometry x="1" y="-597" relative="1" as="geometry">
            <mxPoint x="560" y="760" as="sourcePoint" />
            <mxPoint x="490" y="626" as="targetPoint" />
            <Array as="points">
              <mxPoint x="560" y="740" />
              <mxPoint x="560" y="626" />
            </Array>
            <mxPoint x="-570" y="421" as="offset" />
          </mxGeometry>
        </mxCell>
        <mxCell id="wEBtVkF_9zSbWAXrUxgS-1" value="0..n" style="edgeLabel;resizable=0;html=1;align=left;verticalAlign=top;" parent="wEBtVkF_9zSbWAXrUxgS-0" connectable="0" vertex="1">
          <mxGeometry x="-1" relative="1" as="geometry">
            <mxPoint x="10" y="-40" as="offset" />
          </mxGeometry>
        </mxCell>
        <mxCell id="wEBtVkF_9zSbWAXrUxgS-2" value="1" style="edgeLabel;resizable=0;html=1;align=right;verticalAlign=top;" parent="wEBtVkF_9zSbWAXrUxgS-0" connectable="0" vertex="1">
          <mxGeometry x="1" relative="1" as="geometry" />
        </mxCell>
        <mxCell id="wEBtVkF_9zSbWAXrUxgS-3" value="acc_info" style="swimlane;fontStyle=0;childLayout=stackLayout;horizontal=1;startSize=30;horizontalStack=0;resizeParent=1;resizeParentMax=0;resizeLast=0;collapsible=1;marginBottom=0;" parent="Y1L7bNa00NtnV-SrVzql-1" vertex="1">
          <mxGeometry x="490" y="760" width="140" height="120" as="geometry">
            <mxRectangle x="350" y="40" width="70" height="30" as="alternateBounds" />
          </mxGeometry>
        </mxCell>
        <mxCell id="wEBtVkF_9zSbWAXrUxgS-4" value="acc_id" style="text;strokeColor=none;fillColor=none;align=left;verticalAlign=middle;spacingLeft=4;spacingRight=4;overflow=hidden;points=[[0,0.5],[1,0.5]];portConstraint=eastwest;rotatable=0;" parent="wEBtVkF_9zSbWAXrUxgS-3" vertex="1">
          <mxGeometry y="30" width="140" height="30" as="geometry" />
        </mxCell>
        <mxCell id="wEBtVkF_9zSbWAXrUxgS-5" value="acc_type" style="text;strokeColor=none;fillColor=none;align=left;verticalAlign=middle;spacingLeft=4;spacingRight=4;overflow=hidden;points=[[0,0.5],[1,0.5]];portConstraint=eastwest;rotatable=0;" parent="wEBtVkF_9zSbWAXrUxgS-3" vertex="1">
          <mxGeometry y="60" width="140" height="30" as="geometry" />
        </mxCell>
        <mxCell id="wEBtVkF_9zSbWAXrUxgS-7" value="acc_bal" style="text;strokeColor=none;fillColor=none;align=left;verticalAlign=middle;spacingLeft=4;spacingRight=4;overflow=hidden;points=[[0,0.5],[1,0.5]];portConstraint=eastwest;rotatable=0;" parent="wEBtVkF_9zSbWAXrUxgS-3" vertex="1">
          <mxGeometry y="90" width="140" height="30" as="geometry" />
        </mxCell>
        <mxCell id="dDKsxAz0HI0TsK2BrOm0-0" value="" style="endArrow=open;endFill=1;endSize=12;html=1;rounded=0;exitX=0.814;exitY=1;exitDx=0;exitDy=0;exitPerimeter=0;" parent="Y1L7bNa00NtnV-SrVzql-1" source="wEBtVkF_9zSbWAXrUxgS-7" edge="1">
          <mxGeometry width="160" relative="1" as="geometry">
            <mxPoint x="793.06" y="926" as="sourcePoint" />
            <mxPoint x="686" y="959" as="targetPoint" />
            <Array as="points">
              <mxPoint x="686" y="926" />
            </Array>
          </mxGeometry>
        </mxCell>
        <mxCell id="dDKsxAz0HI0TsK2BrOm0-1" value="acc_type" style="swimlane;fontStyle=0;childLayout=stackLayout;horizontal=1;startSize=30;horizontalStack=0;resizeParent=1;resizeParentMax=0;resizeLast=0;collapsible=1;marginBottom=0;" parent="Y1L7bNa00NtnV-SrVzql-1" vertex="1">
          <mxGeometry x="610" y="960" width="150" height="190" as="geometry">
            <mxRectangle x="350" y="40" width="70" height="30" as="alternateBounds" />
          </mxGeometry>
        </mxCell>
        <mxCell id="dDKsxAz0HI0TsK2BrOm0-2" value="acc_type_id" style="text;strokeColor=none;fillColor=none;align=left;verticalAlign=middle;spacingLeft=4;spacingRight=4;overflow=hidden;points=[[0,0.5],[1,0.5]];portConstraint=eastwest;rotatable=0;" parent="dDKsxAz0HI0TsK2BrOm0-1" vertex="1">
          <mxGeometry y="30" width="150" height="30" as="geometry" />
        </mxCell>
        <mxCell id="dDKsxAz0HI0TsK2BrOm0-3" value="acc_type_name" style="text;strokeColor=none;fillColor=none;align=left;verticalAlign=middle;spacingLeft=4;spacingRight=4;overflow=hidden;points=[[0,0.5],[1,0.5]];portConstraint=eastwest;rotatable=0;" parent="dDKsxAz0HI0TsK2BrOm0-1" vertex="1">
          <mxGeometry y="60" width="150" height="30" as="geometry" />
        </mxCell>
        <mxCell id="dDKsxAz0HI0TsK2BrOm0-4" value="" style="line;strokeWidth=1;rotatable=0;dashed=0;labelPosition=right;align=left;verticalAlign=middle;spacingTop=0;spacingLeft=6;points=[];portConstraint=eastwest;" parent="dDKsxAz0HI0TsK2BrOm0-1" vertex="1">
          <mxGeometry y="90" width="150" height="10" as="geometry" />
        </mxCell>
        <mxCell id="dDKsxAz0HI0TsK2BrOm0-5" value="String: saving_acc_info" style="text;strokeColor=none;fillColor=none;align=left;verticalAlign=middle;spacingLeft=4;spacingRight=4;overflow=hidden;points=[[0,0.5],[1,0.5]];portConstraint=eastwest;rotatable=0;" parent="dDKsxAz0HI0TsK2BrOm0-1" vertex="1">
          <mxGeometry y="100" width="150" height="30" as="geometry" />
        </mxCell>
        <mxCell id="dDKsxAz0HI0TsK2BrOm0-6" value="String: current_acc_info" style="text;strokeColor=none;fillColor=none;align=left;verticalAlign=middle;spacingLeft=4;spacingRight=4;overflow=hidden;points=[[0,0.5],[1,0.5]];portConstraint=eastwest;rotatable=0;" parent="dDKsxAz0HI0TsK2BrOm0-1" vertex="1">
          <mxGeometry y="130" width="150" height="30" as="geometry" />
        </mxCell>
        <mxCell id="dDKsxAz0HI0TsK2BrOm0-7" value="String: business_acc_info" style="text;strokeColor=none;fillColor=none;align=left;verticalAlign=middle;spacingLeft=4;spacingRight=4;overflow=hidden;points=[[0,0.5],[1,0.5]];portConstraint=eastwest;rotatable=0;" parent="dDKsxAz0HI0TsK2BrOm0-1" vertex="1">
          <mxGeometry y="160" width="150" height="30" as="geometry" />
        </mxCell>
        <mxCell id="kFzdoFt8lR_ICUD8HQkc-0" value="Relation" style="endArrow=open;html=1;endSize=12;startArrow=diamondThin;startSize=14;startFill=0;edgeStyle=orthogonalEdgeStyle;rounded=0;entryX=1.021;entryY=0.233;entryDx=0;entryDy=0;entryPerimeter=0;" parent="Y1L7bNa00NtnV-SrVzql-1" target="dCHMZpeTv9J-hSfvHC8G-1" edge="1">
          <mxGeometry x="1" y="-576" relative="1" as="geometry">
            <mxPoint x="620" y="570" as="sourcePoint" />
            <mxPoint x="620" y="366" as="targetPoint" />
            <Array as="points">
              <mxPoint x="590" y="570" />
              <mxPoint x="590" y="513" />
            </Array>
            <mxPoint x="-553" y="413" as="offset" />
          </mxGeometry>
        </mxCell>
        <mxCell id="kFzdoFt8lR_ICUD8HQkc-1" value="0..n" style="edgeLabel;resizable=0;html=1;align=left;verticalAlign=top;" parent="kFzdoFt8lR_ICUD8HQkc-0" connectable="0" vertex="1">
          <mxGeometry x="-1" relative="1" as="geometry">
            <mxPoint x="-30" y="-30" as="offset" />
          </mxGeometry>
        </mxCell>
        <mxCell id="kFzdoFt8lR_ICUD8HQkc-2" value="1" style="edgeLabel;resizable=0;html=1;align=right;verticalAlign=top;" parent="kFzdoFt8lR_ICUD8HQkc-0" connectable="0" vertex="1">
          <mxGeometry x="1" relative="1" as="geometry">
            <mxPoint x="27" as="offset" />
          </mxGeometry>
        </mxCell>
        <mxCell id="kFzdoFt8lR_ICUD8HQkc-3" value="credit_card_info" style="swimlane;fontStyle=0;childLayout=stackLayout;horizontal=1;startSize=30;horizontalStack=0;resizeParent=1;resizeParentMax=0;resizeLast=0;collapsible=1;marginBottom=0;" parent="Y1L7bNa00NtnV-SrVzql-1" vertex="1">
          <mxGeometry x="620" y="550" width="180" height="190" as="geometry">
            <mxRectangle x="350" y="40" width="70" height="30" as="alternateBounds" />
          </mxGeometry>
        </mxCell>
        <mxCell id="kFzdoFt8lR_ICUD8HQkc-4" value="cc_id" style="text;strokeColor=none;fillColor=none;align=left;verticalAlign=middle;spacingLeft=4;spacingRight=4;overflow=hidden;points=[[0,0.5],[1,0.5]];portConstraint=eastwest;rotatable=0;" parent="kFzdoFt8lR_ICUD8HQkc-3" vertex="1">
          <mxGeometry y="30" width="180" height="30" as="geometry" />
        </mxCell>
        <mxCell id="kFzdoFt8lR_ICUD8HQkc-5" value="cc_type" style="text;strokeColor=none;fillColor=none;align=left;verticalAlign=middle;spacingLeft=4;spacingRight=4;overflow=hidden;points=[[0,0.5],[1,0.5]];portConstraint=eastwest;rotatable=0;" parent="kFzdoFt8lR_ICUD8HQkc-3" vertex="1">
          <mxGeometry y="60" width="180" height="30" as="geometry" />
        </mxCell>
        <mxCell id="sNqrJUBMCxk6mg52bDyj-0" value="" style="line;strokeWidth=1;rotatable=0;dashed=0;labelPosition=right;align=left;verticalAlign=middle;spacingTop=0;spacingLeft=6;points=[];portConstraint=eastwest;" parent="kFzdoFt8lR_ICUD8HQkc-3" vertex="1">
          <mxGeometry y="90" width="180" height="10" as="geometry" />
        </mxCell>
        <mxCell id="sNqrJUBMCxk6mg52bDyj-5" value="String: personal_cc_info" style="text;strokeColor=none;fillColor=none;align=left;verticalAlign=middle;spacingLeft=4;spacingRight=4;overflow=hidden;points=[[0,0.5],[1,0.5]];portConstraint=eastwest;rotatable=0;" parent="kFzdoFt8lR_ICUD8HQkc-3" vertex="1">
          <mxGeometry y="100" width="180" height="30" as="geometry" />
        </mxCell>
        <mxCell id="1Isf2kZoO7WFuKC9dOtt-0" value="String: business_cc_info" style="text;strokeColor=none;fillColor=none;align=left;verticalAlign=middle;spacingLeft=4;spacingRight=4;overflow=hidden;points=[[0,0.5],[1,0.5]];portConstraint=eastwest;rotatable=0;" parent="kFzdoFt8lR_ICUD8HQkc-3" vertex="1">
          <mxGeometry y="130" width="180" height="30" as="geometry" />
        </mxCell>
        <mxCell id="1Isf2kZoO7WFuKC9dOtt-1" value="String: islamic_cc_info" style="text;strokeColor=none;fillColor=none;align=left;verticalAlign=middle;spacingLeft=4;spacingRight=4;overflow=hidden;points=[[0,0.5],[1,0.5]];portConstraint=eastwest;rotatable=0;" parent="kFzdoFt8lR_ICUD8HQkc-3" vertex="1">
          <mxGeometry y="160" width="180" height="30" as="geometry" />
        </mxCell>
        <mxCell id="1Isf2kZoO7WFuKC9dOtt-6" value="sign_up" style="swimlane;fontStyle=0;childLayout=stackLayout;horizontal=1;startSize=30;horizontalStack=0;resizeParent=1;resizeParentMax=0;resizeLast=0;collapsible=1;marginBottom=0;" parent="Y1L7bNa00NtnV-SrVzql-1" vertex="1">
          <mxGeometry x="14" y="320" width="140" height="190" as="geometry">
            <mxRectangle x="350" y="40" width="70" height="30" as="alternateBounds" />
          </mxGeometry>
        </mxCell>
        <mxCell id="1Isf2kZoO7WFuKC9dOtt-7" value="user_id" style="text;strokeColor=none;fillColor=none;align=left;verticalAlign=middle;spacingLeft=4;spacingRight=4;overflow=hidden;points=[[0,0.5],[1,0.5]];portConstraint=eastwest;rotatable=0;" parent="1Isf2kZoO7WFuKC9dOtt-6" vertex="1">
          <mxGeometry y="30" width="140" height="30" as="geometry" />
        </mxCell>
        <mxCell id="1Isf2kZoO7WFuKC9dOtt-8" value="user_name" style="text;strokeColor=none;fillColor=none;align=left;verticalAlign=middle;spacingLeft=4;spacingRight=4;overflow=hidden;points=[[0,0.5],[1,0.5]];portConstraint=eastwest;rotatable=0;" parent="1Isf2kZoO7WFuKC9dOtt-6" vertex="1">
          <mxGeometry y="60" width="140" height="30" as="geometry" />
        </mxCell>
        <mxCell id="1Isf2kZoO7WFuKC9dOtt-9" value="user_email" style="text;strokeColor=none;fillColor=none;align=left;verticalAlign=middle;spacingLeft=4;spacingRight=4;overflow=hidden;points=[[0,0.5],[1,0.5]];portConstraint=eastwest;rotatable=0;" parent="1Isf2kZoO7WFuKC9dOtt-6" vertex="1">
          <mxGeometry y="90" width="140" height="30" as="geometry" />
        </mxCell>
        <mxCell id="1Isf2kZoO7WFuKC9dOtt-10" value="user_pass" style="text;strokeColor=none;fillColor=none;align=left;verticalAlign=middle;spacingLeft=4;spacingRight=4;overflow=hidden;points=[[0,0.5],[1,0.5]];portConstraint=eastwest;rotatable=0;" parent="1Isf2kZoO7WFuKC9dOtt-6" vertex="1">
          <mxGeometry y="120" width="140" height="30" as="geometry" />
        </mxCell>
        <mxCell id="1Isf2kZoO7WFuKC9dOtt-11" value="" style="line;strokeWidth=1;rotatable=0;dashed=0;labelPosition=right;align=left;verticalAlign=middle;spacingTop=0;spacingLeft=6;points=[];portConstraint=eastwest;" parent="1Isf2kZoO7WFuKC9dOtt-6" vertex="1">
          <mxGeometry y="150" width="140" height="10" as="geometry" />
        </mxCell>
        <mxCell id="1Isf2kZoO7WFuKC9dOtt-12" value="String: signup" style="text;strokeColor=none;fillColor=none;align=left;verticalAlign=middle;spacingLeft=4;spacingRight=4;overflow=hidden;points=[[0,0.5],[1,0.5]];portConstraint=eastwest;rotatable=0;" parent="1Isf2kZoO7WFuKC9dOtt-6" vertex="1">
          <mxGeometry y="160" width="140" height="30" as="geometry" />
        </mxCell>
        <mxCell id="1Isf2kZoO7WFuKC9dOtt-13" value="Relation" style="endArrow=open;html=1;endSize=12;startArrow=diamondThin;startSize=14;startFill=0;edgeStyle=orthogonalEdgeStyle;rounded=0;entryX=-0.021;entryY=0.133;entryDx=0;entryDy=0;entryPerimeter=0;exitX=1.021;exitY=-0.1;exitDx=0;exitDy=0;exitPerimeter=0;" parent="Y1L7bNa00NtnV-SrVzql-1" source="1Isf2kZoO7WFuKC9dOtt-7" target="3sJXT6-CEv4_c_VsRtGo-3" edge="1">
          <mxGeometry x="-1" y="291" relative="1" as="geometry">
            <mxPoint x="170" y="340" as="sourcePoint" />
            <mxPoint x="330" y="340" as="targetPoint" />
            <mxPoint x="-280" y="211" as="offset" />
          </mxGeometry>
        </mxCell>
        <mxCell id="1Isf2kZoO7WFuKC9dOtt-14" value="0..n" style="edgeLabel;resizable=0;html=1;align=left;verticalAlign=top;" parent="1Isf2kZoO7WFuKC9dOtt-13" connectable="0" vertex="1">
          <mxGeometry x="-1" relative="1" as="geometry" />
        </mxCell>
        <mxCell id="1Isf2kZoO7WFuKC9dOtt-15" value="1" style="edgeLabel;resizable=0;html=1;align=right;verticalAlign=top;" parent="1Isf2kZoO7WFuKC9dOtt-13" connectable="0" vertex="1">
          <mxGeometry x="1" relative="1" as="geometry" />
        </mxCell>
        <mxCell id="1Isf2kZoO7WFuKC9dOtt-16" value="Relation" style="endArrow=open;html=1;endSize=12;startArrow=diamondThin;startSize=14;startFill=0;edgeStyle=orthogonalEdgeStyle;rounded=0;entryX=1.029;entryY=-0.1;entryDx=0;entryDy=0;entryPerimeter=0;" parent="Y1L7bNa00NtnV-SrVzql-1" target="3sJXT6-CEv4_c_VsRtGo-2" edge="1">
          <mxGeometry x="1" y="-557" relative="1" as="geometry">
            <mxPoint x="680" y="315" as="sourcePoint" />
            <mxPoint x="760" y="290" as="targetPoint" />
            <mxPoint x="-554" y="500" as="offset" />
          </mxGeometry>
        </mxCell>
        <mxCell id="1Isf2kZoO7WFuKC9dOtt-17" value="0..n" style="edgeLabel;resizable=0;html=1;align=left;verticalAlign=top;" parent="1Isf2kZoO7WFuKC9dOtt-16" connectable="0" vertex="1">
          <mxGeometry x="-1" relative="1" as="geometry">
            <mxPoint x="-40" y="-25" as="offset" />
          </mxGeometry>
        </mxCell>
        <mxCell id="1Isf2kZoO7WFuKC9dOtt-18" value="1" style="edgeLabel;resizable=0;html=1;align=right;verticalAlign=top;" parent="1Isf2kZoO7WFuKC9dOtt-16" connectable="0" vertex="1">
          <mxGeometry x="1" relative="1" as="geometry" />
        </mxCell>
        <mxCell id="1Isf2kZoO7WFuKC9dOtt-19" value="sign_in" style="swimlane;fontStyle=0;childLayout=stackLayout;horizontal=1;startSize=30;horizontalStack=0;resizeParent=1;resizeParentMax=0;resizeLast=0;collapsible=1;marginBottom=0;" parent="Y1L7bNa00NtnV-SrVzql-1" vertex="1">
          <mxGeometry x="680" y="300" width="140" height="130" as="geometry">
            <mxRectangle x="350" y="40" width="70" height="30" as="alternateBounds" />
          </mxGeometry>
        </mxCell>
        <mxCell id="1Isf2kZoO7WFuKC9dOtt-22" value="user_email" style="text;strokeColor=none;fillColor=none;align=left;verticalAlign=middle;spacingLeft=4;spacingRight=4;overflow=hidden;points=[[0,0.5],[1,0.5]];portConstraint=eastwest;rotatable=0;" parent="1Isf2kZoO7WFuKC9dOtt-19" vertex="1">
          <mxGeometry y="30" width="140" height="30" as="geometry" />
        </mxCell>
        <mxCell id="1Isf2kZoO7WFuKC9dOtt-23" value="user_pass" style="text;strokeColor=none;fillColor=none;align=left;verticalAlign=middle;spacingLeft=4;spacingRight=4;overflow=hidden;points=[[0,0.5],[1,0.5]];portConstraint=eastwest;rotatable=0;" parent="1Isf2kZoO7WFuKC9dOtt-19" vertex="1">
          <mxGeometry y="60" width="140" height="30" as="geometry" />
        </mxCell>
        <mxCell id="1Isf2kZoO7WFuKC9dOtt-24" value="" style="line;strokeWidth=1;rotatable=0;dashed=0;labelPosition=right;align=left;verticalAlign=middle;spacingTop=0;spacingLeft=6;points=[];portConstraint=eastwest;" parent="1Isf2kZoO7WFuKC9dOtt-19" vertex="1">
          <mxGeometry y="90" width="140" height="10" as="geometry" />
        </mxCell>
        <mxCell id="1Isf2kZoO7WFuKC9dOtt-25" value="String: signin" style="text;strokeColor=none;fillColor=none;align=left;verticalAlign=middle;spacingLeft=4;spacingRight=4;overflow=hidden;points=[[0,0.5],[1,0.5]];portConstraint=eastwest;rotatable=0;" parent="1Isf2kZoO7WFuKC9dOtt-19" vertex="1">
          <mxGeometry y="100" width="140" height="30" as="geometry" />
        </mxCell>
      </root>
    </mxGraphModel>
  </diagram>
</mxfile>
